<svg id="container" width="550.115478515625" xmlns="http://www.w3.org/2000/svg" class="erDiagram" height="675" viewBox="0 0 550.115478515625 675" role="graphics-document document" aria-roledescription="er"><style>#container{font-family:"trebuchet ms",verdana,arial,sans-serif;font-size:16px;fill:#333;}@keyframes edge-animation-frame{from{stroke-dashoffset:0;}}@keyframes dash{to{stroke-dashoffset:0;}}#container .edge-animation-slow{stroke-dasharray:9,5!important;stroke-dashoffset:900;animation:dash 50s linear infinite;stroke-linecap:round;}#container .edge-animation-fast{stroke-dasharray:9,5!important;stroke-dashoffset:900;animation:dash 20s linear infinite;stroke-linecap:round;}#container .error-icon{fill:#552222;}#container .error-text{fill:#552222;stroke:#552222;}#container .edge-thickness-normal{stroke-width:1px;}#container .edge-thickness-thick{stroke-width:3.5px;}#container .edge-pattern-solid{stroke-dasharray:0;}#container .edge-thickness-invisible{stroke-width:0;fill:none;}#container .edge-pattern-dashed{stroke-dasharray:3;}#container .edge-pattern-dotted{stroke-dasharray:2;}#container .marker{fill:#333333;stroke:#333333;}#container .marker.cross{stroke:#333333;}#container svg{font-family:"trebuchet ms",verdana,arial,sans-serif;font-size:16px;}#container p{margin:0;}#container .entityBox{fill:#ECECFF;stroke:#9370DB;}#container .relationshipLabelBox{fill:hsl(80, 100%, 96.2745098039%);opacity:0.7;background-color:hsl(80, 100%, 96.2745098039%);}#container .relationshipLabelBox rect{opacity:0.5;}#container .labelBkg{background-color:rgba(248.6666666666, 255, 235.9999999999, 0.5);}#container .edgeLabel .label{fill:#9370DB;font-size:14px;}#container .label{font-family:"trebuchet ms",verdana,arial,sans-serif;color:#333;}#container .edge-pattern-dashed{stroke-dasharray:8,8;}#container .node rect,#container .node circle,#container .node ellipse,#container .node polygon{fill:#ECECFF;stroke:#9370DB;stroke-width:1px;}#container .relationshipLine{stroke:#333333;stroke-width:1;fill:none;}#container .marker{fill:none!important;stroke:#333333!important;stroke-width:1;}#container :root{--mermaid-font-family:"trebuchet ms",verdana,arial,sans-serif;}</style><g><defs><marker id="container_er-onlyOneStart" class="marker onlyOne er" refX="0" refY="9" markerWidth="18" markerHeight="18" orient="auto"><path d="M9,0 L9,18 M15,0 L15,18"></path></marker></defs><defs><marker id="container_er-onlyOneEnd" class="marker onlyOne er" refX="18" refY="9" markerWidth="18" markerHeight="18" orient="auto"><path d="M3,0 L3,18 M9,0 L9,18"></path></marker></defs><defs><marker id="container_er-zeroOrOneStart" class="marker zeroOrOne er" refX="0" refY="9" markerWidth="30" markerHeight="18" orient="auto"><circle fill="white" cx="21" cy="9" r="6"></circle><path d="M9,0 L9,18"></path></marker></defs><defs><marker id="container_er-zeroOrOneEnd" class="marker zeroOrOne er" refX="30" refY="9" markerWidth="30" markerHeight="18" orient="auto"><circle fill="white" cx="9" cy="9" r="6"></circle><path d="M21,0 L21,18"></path></marker></defs><defs><marker id="container_er-oneOrMoreStart" class="marker oneOrMore er" refX="18" refY="18" markerWidth="45" markerHeight="36" orient="auto"><path d="M0,18 Q 18,0 36,18 Q 18,36 0,18 M42,9 L42,27"></path></marker></defs><defs><marker id="container_er-oneOrMoreEnd" class="marker oneOrMore er" refX="27" refY="18" markerWidth="45" markerHeight="36" orient="auto"><path d="M3,9 L3,27 M9,18 Q27,0 45,18 Q27,36 9,18"></path></marker></defs><defs><marker id="container_er-zeroOrMoreStart" class="marker zeroOrMore er" refX="18" refY="18" markerWidth="57" markerHeight="36" orient="auto"><circle fill="white" cx="48" cy="18" r="6"></circle><path d="M0,18 Q18,0 36,18 Q18,36 0,18"></path></marker></defs><defs><marker id="container_er-zeroOrMoreEnd" class="marker zeroOrMore er" refX="39" refY="18" markerWidth="57" markerHeight="36" orient="auto"><circle fill="white" cx="9" cy="18" r="6"></circle><path d="M21,18 Q39,0 57,18 Q39,36 21,18"></path></marker></defs><g class="root"><g class="clusters"></g><g class="edgePaths"><path d="M96.628,413L96.628,421.583C96.628,430.167,96.628,447.333,108.636,465.399C120.643,483.465,144.658,502.43,156.665,511.912L168.673,521.395" id="id_entity-STUDENT-0_entity-ENROLLMENT-3_0" class="edge-thickness-normal edge-pattern-solid relationshipLine" style="undefined;;;undefined" data-edge="true" data-et="edge" data-id="id_entity-STUDENT-0_entity-ENROLLMENT-3_0" data-points="W3sieCI6OTYuNjI4MDgyMjc1MzkwNjIsInkiOjQxM30seyJ4Ijo5Ni42MjgwODIyNzUzOTA2MiwieSI6NDY0LjV9LHsieCI6MTY4LjY3MjkxMjU5NzY1NjI1LCJ5Ijo1MjEuMzk0ODQxODQyMTQ4OH1d" marker-start="url(#container_er-onlyOneStart)" marker-end="url(#container_er-zeroOrMoreEnd)"></path><path d="M418.263,413L418.263,421.583C418.263,430.167,418.263,447.333,406.256,465.399C394.248,483.465,370.233,502.43,358.226,511.912L346.219,521.395" id="id_entity-COURSE-1_entity-ENROLLMENT-3_1" class="edge-thickness-normal edge-pattern-solid relationshipLine" style="undefined;;;undefined" data-edge="true" data-et="edge" data-id="id_entity-COURSE-1_entity-ENROLLMENT-3_1" data-points="W3sieCI6NDE4LjI2MzMzNjE4MTY0MDYsInkiOjQxM30seyJ4Ijo0MTguMjYzMzM2MTgxNjQwNiwieSI6NDY0LjV9LHsieCI6MzQ2LjIxODUwNTg1OTM3NSwieSI6NTIxLjM5NDg0MTg0MjE0ODh9XQ==" marker-start="url(#container_er-onlyOneStart)" marker-end="url(#container_er-zeroOrMoreEnd)"></path><path d="M418.263,159L418.263,167.583C418.263,176.167,418.263,193.333,418.263,210.5C418.263,227.667,418.263,244.833,418.263,253.417L418.263,262" id="id_entity-PROFESSOR-2_entity-COURSE-1_2" class="edge-thickness-normal edge-pattern-solid relationshipLine" style="undefined;;;undefined" data-edge="true" data-et="edge" data-id="id_entity-PROFESSOR-2_entity-COURSE-1_2" data-points="W3sieCI6NDE4LjI2MzMzNjE4MTY0MDYsInkiOjE1OX0seyJ4Ijo0MTguMjYzMzM2MTgxNjQwNiwieSI6MjEwLjV9LHsieCI6NDE4LjI2MzMzNjE4MTY0MDYsInkiOjI2Mn1d" marker-start="url(#container_er-onlyOneStart)" marker-end="url(#container_er-zeroOrMoreEnd)"></path></g><g class="edgeLabels"><g class="edgeLabel" transform="translate(96.62808227539062, 464.5)"><g class="label" data-id="id_entity-STUDENT-0_entity-ENROLLMENT-3_0" transform="translate(-36.0625, -11.5)"><g><rect class="background" style="" x="-2" y="-1" width="72.125" height="23"></rect><text y="-10.1" style=""><tspan class="text-outer-tspan" x="0" y="-0.1em" dy="1.1em"><tspan font-style="normal" class="text-inner-tspan" font-weight="normal">enrolls</tspan><tspan font-style="normal" class="text-inner-tspan" font-weight="normal"> in</tspan></tspan></text></g></g></g><g class="edgeLabel" transform="translate(418.2633361816406, 464.5)"><g class="label" data-id="id_entity-COURSE-1_entity-ENROLLMENT-3_1" transform="translate(-14.703125, -11.5)"><g><rect class="background" style="" x="-2" y="-1" width="29.40625" height="23"></rect><text y="-10.1" style=""><tspan class="text-outer-tspan" x="0" y="-0.1em" dy="1.1em"><tspan font-style="normal" class="text-inner-tspan" font-weight="normal">has</tspan></tspan></text></g></g></g><g class="edgeLabel" transform="translate(418.2633361816406, 210.5)"><g class="label" data-id="id_entity-PROFESSOR-2_entity-COURSE-1_2" transform="translate(-30.015625, -11.5)"><g><rect class="background" style="" x="-2" y="-1" width="60.03125" height="23"></rect><text y="-10.1" style=""><tspan class="text-outer-tspan" x="0" y="-0.1em" dy="1.1em"><tspan font-style="normal" class="text-inner-tspan" font-weight="normal">teaches</tspan></tspan></text></g></g></g></g><g class="nodes"><g class="node default" id="entity-STUDENT-0" transform="translate(96.62808227539062, 337.5)"><g style=""><path d="M-88.62808227539062 -75.5 L88.62808227539062 -75.5 L88.62808227539062 75.5 L-88.62808227539062 75.5" stroke="none" stroke-width="0" fill="#ECECFF"></path><path d="M-88.62808227539062 -75.5 C-46.46648052463912 -75.5, -4.304878773887609 -75.5, 88.62808227539062 -75.5 M-88.62808227539062 -75.5 C-22.104506319932298 -75.5, 44.41906963552603 -75.5, 88.62808227539062 -75.5 M88.62808227539062 -75.5 C88.62808227539062 -16.74417886441632, 88.62808227539062 42.01164227116736, 88.62808227539062 75.5 M88.62808227539062 -75.5 C88.62808227539062 -18.755387884197567, 88.62808227539062 37.989224231604865, 88.62808227539062 75.5 M88.62808227539062 75.5 C25.46405503982684 75.5, -37.69997219573695 75.5, -88.62808227539062 75.5 M88.62808227539062 75.5 C43.963708297162995 75.5, -0.7006656810646348 75.5, -88.62808227539062 75.5 M-88.62808227539062 75.5 C-88.62808227539062 32.7539869724734, -88.62808227539062 -9.992026055053202, -88.62808227539062 -75.5 M-88.62808227539062 75.5 C-88.62808227539062 30.766315790999506, -88.62808227539062 -13.967368418000987, -88.62808227539062 -75.5" stroke="#9370DB" stroke-width="1.3" fill="none" stroke-dasharray="0 0"></path></g><g style="" class="row-rect-odd"><path d="M-88.62808227539062 -37.75 L88.62808227539062 -37.75 L88.62808227539062 0 L-88.62808227539062 0" stroke="none" stroke-width="0" fill="hsl(240, 100%, 100%)"></path><path d="M-88.62808227539062 -37.75 C-20.355755341328347 -37.75, 47.91657159273393 -37.75, 88.62808227539062 -37.75 M-88.62808227539062 -37.75 C-47.16025022725098 -37.75, -5.692418179111328 -37.75, 88.62808227539062 -37.75 M88.62808227539062 -37.75 C88.62808227539062 -26.38306025375201, 88.62808227539062 -15.01612050750402, 88.62808227539062 0 M88.62808227539062 -37.75 C88.62808227539062 -26.22557455523925, 88.62808227539062 -14.701149110478493, 88.62808227539062 0 M88.62808227539062 0 C50.59756587677148 0, 12.567049478152342 0, -88.62808227539062 0 M88.62808227539062 0 C36.62218955446899 0, -15.383703166452648 0, -88.62808227539062 0 M-88.62808227539062 0 C-88.62808227539062 -10.7236143394566, -88.62808227539062 -21.4472286789132, -88.62808227539062 -37.75 M-88.62808227539062 0 C-88.62808227539062 -13.06122563808334, -88.62808227539062 -26.12245127616668, -88.62808227539062 -37.75" stroke="#9370DB" stroke-width="1.3" fill="none" stroke-dasharray="0 0"></path></g><g style="" class="row-rect-even"><path d="M-88.62808227539062 0 L88.62808227539062 0 L88.62808227539062 37.75 L-88.62808227539062 37.75" stroke="none" stroke-width="0" fill="hsl(240, 100%, 97.2745098039%)"></path><path d="M-88.62808227539062 0 C-26.532351131021088 0, 35.56338001334845 0, 88.62808227539062 0 M-88.62808227539062 0 C-39.29752927253447 0, 10.033023730321688 0, 88.62808227539062 0 M88.62808227539062 0 C88.62808227539062 12.01806562320172, 88.62808227539062 24.03613124640344, 88.62808227539062 37.75 M88.62808227539062 0 C88.62808227539062 10.32916316988874, 88.62808227539062 20.65832633977748, 88.62808227539062 37.75 M88.62808227539062 37.75 C34.29534059362566 37.75, -20.037401088139305 37.75, -88.62808227539062 37.75 M88.62808227539062 37.75 C28.02582296212242 37.75, -32.57643635114579 37.75, -88.62808227539062 37.75 M-88.62808227539062 37.75 C-88.62808227539062 22.995484110819127, -88.62808227539062 8.240968221638255, -88.62808227539062 0 M-88.62808227539062 37.75 C-88.62808227539062 26.45706895991415, -88.62808227539062 15.164137919828299, -88.62808227539062 0" stroke="#9370DB" stroke-width="1.3" fill="none" stroke-dasharray="0 0"></path></g><g style="" class="row-rect-odd"><path d="M-88.62808227539062 37.75 L88.62808227539062 37.75 L88.62808227539062 75.5 L-88.62808227539062 75.5" stroke="none" stroke-width="0" fill="hsl(240, 100%, 100%)"></path><path d="M-88.62808227539062 37.75 C-34.86227673075692 37.75, 18.90352881387679 37.75, 88.62808227539062 37.75 M-88.62808227539062 37.75 C-47.794715913952096 37.75, -6.961349552513568 37.75, 88.62808227539062 37.75 M88.62808227539062 37.75 C88.62808227539062 52.79210550270519, 88.62808227539062 67.83421100541038, 88.62808227539062 75.5 M88.62808227539062 37.75 C88.62808227539062 50.35671102359495, 88.62808227539062 62.963422047189894, 88.62808227539062 75.5 M88.62808227539062 75.5 C40.73843431720775 75.5, -7.151213640975129 75.5, -88.62808227539062 75.5 M88.62808227539062 75.5 C32.96993258008207 75.5, -22.68821711522648 75.5, -88.62808227539062 75.5 M-88.62808227539062 75.5 C-88.62808227539062 63.61931303284856, -88.62808227539062 51.73862606569712, -88.62808227539062 37.75 M-88.62808227539062 75.5 C-88.62808227539062 64.01169063634251, -88.62808227539062 52.523381272685015, -88.62808227539062 37.75" stroke="#9370DB" stroke-width="1.3" fill="none" stroke-dasharray="0 0"></path></g><g class="label name" transform="translate(-33.012054443359375, -66.125)" style=""><g><rect class="background" style="stroke: none"></rect></g><text y="-10.1" style=""><tspan class="text-outer-tspan" x="0" y="-0.1em" dy="1.1em"><tspan font-style="normal" class="text-inner-tspan" font-weight="normal">STUDENT</tspan></tspan></text></g><g class="label attribute-type" transform="translate(-76.12808227539062, -28.375)" style=""><g><rect class="background" style="stroke: none"></rect></g><text y="-10.1" style=""><tspan class="text-outer-tspan" x="0" y="-0.1em" dy="1.1em"><tspan font-style="normal" class="text-inner-tspan" font-weight="normal">int</tspan></tspan></text></g><g class="label attribute-name" transform="translate(-8.816009521484375, -28.375)" style=""><g><rect class="background" style="stroke: none"></rect></g><text y="-10.1" style=""><tspan class="text-outer-tspan" x="0" y="-0.1em" dy="1.1em"><tspan font-style="normal" class="text-inner-tspan" font-weight="normal">id</tspan></tspan></text></g><g class="label attribute-keys" transform="translate(56.832061767578125, -28.375)" style=""><g><rect class="background" style="stroke: none"></rect></g><text y="-10.1" style=""><tspan class="text-outer-tspan" x="0" y="-0.1em" dy="1.1em"><tspan font-style="normal" class="text-inner-tspan" font-weight="normal">PK</tspan></tspan></text></g><g class="label attribute-comment" transform="translate(101.12808227539062, -28.375)" style=""><g><rect class="background" style="stroke: none"></rect></g><text y="-10.1" style=""><tspan class="text-outer-tspan" x="0" y="-0.1em" dy="1.1em"></tspan></text></g><g class="label attribute-type" transform="translate(-76.12808227539062, 9.375)" style=""><g><rect class="background" style="stroke: none"></rect></g><text y="-10.1" style=""><tspan class="text-outer-tspan" x="0" y="-0.1em" dy="1.1em"><tspan font-style="normal" class="text-inner-tspan" font-weight="normal">string</tspan></tspan></text></g><g class="label attribute-name" transform="translate(-8.816009521484375, 9.375)" style=""><g><rect class="background" style="stroke: none"></rect></g><text y="-10.1" style=""><tspan class="text-outer-tspan" x="0" y="-0.1em" dy="1.1em"><tspan font-style="normal" class="text-inner-tspan" font-weight="normal">name</tspan></tspan></text></g><g class="label attribute-keys" transform="translate(56.832061767578125, 9.375)" style=""><g><rect class="background" style="stroke: none"></rect></g><text y="-10.1" style=""><tspan class="text-outer-tspan" x="0" y="-0.1em" dy="1.1em"></tspan></text></g><g class="label attribute-comment" transform="translate(101.12808227539062, 9.375)" style=""><g><rect class="background" style="stroke: none"></rect></g><text y="-10.1" style=""><tspan class="text-outer-tspan" x="0" y="-0.1em" dy="1.1em"></tspan></text></g><g class="label attribute-type" transform="translate(-76.12808227539062, 47.125)" style=""><g><rect class="background" style="stroke: none"></rect></g><text y="-10.1" style=""><tspan class="text-outer-tspan" x="0" y="-0.1em" dy="1.1em"><tspan font-style="normal" class="text-inner-tspan" font-weight="normal">string</tspan></tspan></text></g><g class="label attribute-name" transform="translate(-8.816009521484375, 47.125)" style=""><g><rect class="background" style="stroke: none"></rect></g><text y="-10.1" style=""><tspan class="text-outer-tspan" x="0" y="-0.1em" dy="1.1em"><tspan font-style="normal" class="text-inner-tspan" font-weight="normal">email</tspan></tspan></text></g><g class="label attribute-keys" transform="translate(56.832061767578125, 47.125)" style=""><g><rect class="background" style="stroke: none"></rect></g><text y="-10.1" style=""><tspan class="text-outer-tspan" x="0" y="-0.1em" dy="1.1em"></tspan></text></g><g class="label attribute-comment" transform="translate(101.12808227539062, 47.125)" style=""><g><rect class="background" style="stroke: none"></rect></g><text y="-10.1" style=""><tspan class="text-outer-tspan" x="0" y="-0.1em" dy="1.1em"></tspan></text></g><g class="divider"><path d="M-88.62808227539062 -37.75 C-21.724642281704405 -37.75, 45.178797711981815 -37.75, 88.62808227539062 -37.75 M-88.62808227539062 -37.75 C-19.349754738769434 -37.75, 49.92857279785176 -37.75, 88.62808227539062 -37.75" stroke="#9370DB" stroke-width="1.3" fill="none" stroke-dasharray="0 0"></path></g><g class="divider"><path d="M-21.316009521484375 -37.75 C-21.316009521484375 -9.12703919042822, -21.316009521484375 19.49592161914356, -21.316009521484375 75.5 M-21.316009521484375 -37.75 C-21.316009521484375 -9.191898150180382, -21.316009521484375 19.366203699639236, -21.316009521484375 75.5" stroke="#9370DB" stroke-width="1.3" fill="none" stroke-dasharray="0 0"></path></g><g class="divider"><path d="M44.332061767578125 -37.75 C44.332061767578125 5.30450691508117, 44.332061767578125 48.35901383016234, 44.332061767578125 75.5 M44.332061767578125 -37.75 C44.332061767578125 0.7725297650986178, 44.332061767578125 39.295059530197236, 44.332061767578125 75.5" stroke="#9370DB" stroke-width="1.3" fill="none" stroke-dasharray="0 0"></path></g><g class="divider"><path d="M-88.62808227539062 -37.75 C-18.4475315477993 -37.75, 51.733019179792024 -37.75, 88.62808227539062 -37.75 M-88.62808227539062 -37.75 C-27.769233823299153 -37.75, 33.08961462879232 -37.75, 88.62808227539062 -37.75" stroke="#9370DB" stroke-width="1.3" fill="none" stroke-dasharray="0 0"></path></g></g><g class="node default" id="entity-COURSE-1" transform="translate(418.2633361816406, 337.5)"><g style=""><path d="M-93.00717163085938 -75.5 L93.00717163085938 -75.5 L93.00717163085938 75.5 L-93.00717163085938 75.5" stroke="none" stroke-width="0" fill="#ECECFF"></path><path d="M-93.00717163085938 -75.5 C-30.368480435220903 -75.5, 32.27021076041757 -75.5, 93.00717163085938 -75.5 M-93.00717163085938 -75.5 C-31.77567137770928 -75.5, 29.455828875440815 -75.5, 93.00717163085938 -75.5 M93.00717163085938 -75.5 C93.00717163085938 -33.69686447161005, 93.00717163085938 8.106271056779903, 93.00717163085938 75.5 M93.00717163085938 -75.5 C93.00717163085938 -38.870596978939844, 93.00717163085938 -2.2411939578796876, 93.00717163085938 75.5 M93.00717163085938 75.5 C28.2049308543656 75.5, -36.597309922128176 75.5, -93.00717163085938 75.5 M93.00717163085938 75.5 C48.32088187766086 75.5, 3.634592124462344 75.5, -93.00717163085938 75.5 M-93.00717163085938 75.5 C-93.00717163085938 28.060930136906315, -93.00717163085938 -19.37813972618737, -93.00717163085938 -75.5 M-93.00717163085938 75.5 C-93.00717163085938 29.28542088706081, -93.00717163085938 -16.929158225878382, -93.00717163085938 -75.5" stroke="#9370DB" stroke-width="1.3" fill="none" stroke-dasharray="0 0"></path></g><g style="" class="row-rect-odd"><path d="M-93.00717163085938 -37.75 L93.00717163085938 -37.75 L93.00717163085938 0 L-93.00717163085938 0" stroke="none" stroke-width="0" fill="hsl(240, 100%, 100%)"></path><path d="M-93.00717163085938 -37.75 C-25.774604000388806 -37.75, 41.457963630081764 -37.75, 93.00717163085938 -37.75 M-93.00717163085938 -37.75 C-37.281358598890066 -37.75, 18.444454433079244 -37.75, 93.00717163085938 -37.75 M93.00717163085938 -37.75 C93.00717163085938 -25.209496150446768, 93.00717163085938 -12.668992300893539, 93.00717163085938 0 M93.00717163085938 -37.75 C93.00717163085938 -29.579364658468783, 93.00717163085938 -21.408729316937567, 93.00717163085938 0 M93.00717163085938 0 C43.685918694665986 0, -5.635334241527403 0, -93.00717163085938 0 M93.00717163085938 0 C53.240566039630416 0, 13.473960448401456 0, -93.00717163085938 0 M-93.00717163085938 0 C-93.00717163085938 -9.772707336220693, -93.00717163085938 -19.545414672441385, -93.00717163085938 -37.75 M-93.00717163085938 0 C-93.00717163085938 -9.798669748292637, -93.00717163085938 -19.597339496585274, -93.00717163085938 -37.75" stroke="#9370DB" stroke-width="1.3" fill="none" stroke-dasharray="0 0"></path></g><g style="" class="row-rect-even"><path d="M-93.00717163085938 0 L93.00717163085938 0 L93.00717163085938 37.75 L-93.00717163085938 37.75" stroke="none" stroke-width="0" fill="hsl(240, 100%, 97.2745098039%)"></path><path d="M-93.00717163085938 0 C-42.423996479150475 0, 8.159178672558426 0, 93.00717163085938 0 M-93.00717163085938 0 C-21.380862975456466 0, 50.24544567994644 0, 93.00717163085938 0 M93.00717163085938 0 C93.00717163085938 11.751359021273167, 93.00717163085938 23.502718042546334, 93.00717163085938 37.75 M93.00717163085938 0 C93.00717163085938 9.832729919453465, 93.00717163085938 19.66545983890693, 93.00717163085938 37.75 M93.00717163085938 37.75 C47.28526966070495 37.75, 1.5633676905505212 37.75, -93.00717163085938 37.75 M93.00717163085938 37.75 C40.98248791170801 37.75, -11.042195807443349 37.75, -93.00717163085938 37.75 M-93.00717163085938 37.75 C-93.00717163085938 28.831535302927282, -93.00717163085938 19.913070605854564, -93.00717163085938 0 M-93.00717163085938 37.75 C-93.00717163085938 22.809354143100126, -93.00717163085938 7.868708286200253, -93.00717163085938 0" stroke="#9370DB" stroke-width="1.3" fill="none" stroke-dasharray="0 0"></path></g><g style="" class="row-rect-odd"><path d="M-93.00717163085938 37.75 L93.00717163085938 37.75 L93.00717163085938 75.5 L-93.00717163085938 75.5" stroke="none" stroke-width="0" fill="hsl(240, 100%, 100%)"></path><path d="M-93.00717163085938 37.75 C-22.491424497621637 37.75, 48.0243226356161 37.75, 93.00717163085938 37.75 M-93.00717163085938 37.75 C-26.265900204669236 37.75, 40.4753712215209 37.75, 93.00717163085938 37.75 M93.00717163085938 37.75 C93.00717163085938 49.564917292701715, 93.00717163085938 61.37983458540343, 93.00717163085938 75.5 M93.00717163085938 37.75 C93.00717163085938 51.31563742580401, 93.00717163085938 64.88127485160803, 93.00717163085938 75.5 M93.00717163085938 75.5 C36.83123000053975 75.5, -19.34471162977988 75.5, -93.00717163085938 75.5 M93.00717163085938 75.5 C25.20216126311695 75.5, -42.60284910462548 75.5, -93.00717163085938 75.5 M-93.00717163085938 75.5 C-93.00717163085938 65.98710728930189, -93.00717163085938 56.474214578603764, -93.00717163085938 37.75 M-93.00717163085938 75.5 C-93.00717163085938 61.148781709252575, -93.00717163085938 46.79756341850515, -93.00717163085938 37.75" stroke="#9370DB" stroke-width="1.3" fill="none" stroke-dasharray="0 0"></path></g><g class="label name" transform="translate(-28.578125, -66.125)" style=""><g><rect class="background" style="stroke: none"></rect></g><text y="-10.1" style=""><tspan class="text-outer-tspan" x="0" y="-0.1em" dy="1.1em"><tspan font-style="normal" class="text-inner-tspan" font-weight="normal">COURSE</tspan></tspan></text></g><g class="label attribute-type" transform="translate(-80.50717163085938, -28.375)" style=""><g><rect class="background" style="stroke: none"></rect></g><text y="-10.1" style=""><tspan class="text-outer-tspan" x="0" y="-0.1em" dy="1.1em"><tspan font-style="normal" class="text-inner-tspan" font-weight="normal">int</tspan></tspan></text></g><g class="label attribute-name" transform="translate(-13.195098876953125, -28.375)" style=""><g><rect class="background" style="stroke: none"></rect></g><text y="-10.1" style=""><tspan class="text-outer-tspan" x="0" y="-0.1em" dy="1.1em"><tspan font-style="normal" class="text-inner-tspan" font-weight="normal">id</tspan></tspan></text></g><g class="label attribute-keys" transform="translate(61.211151123046875, -28.375)" style=""><g><rect class="background" style="stroke: none"></rect></g><text y="-10.1" style=""><tspan class="text-outer-tspan" x="0" y="-0.1em" dy="1.1em"><tspan font-style="normal" class="text-inner-tspan" font-weight="normal">PK</tspan></tspan></text></g><g class="label attribute-comment" transform="translate(105.50717163085938, -28.375)" style=""><g><rect class="background" style="stroke: none"></rect></g><text y="-10.1" style=""><tspan class="text-outer-tspan" x="0" y="-0.1em" dy="1.1em"></tspan></text></g><g class="label attribute-type" transform="translate(-80.50717163085938, 9.375)" style=""><g><rect class="background" style="stroke: none"></rect></g><text y="-10.1" style=""><tspan class="text-outer-tspan" x="0" y="-0.1em" dy="1.1em"><tspan font-style="normal" class="text-inner-tspan" font-weight="normal">string</tspan></tspan></text></g><g class="label attribute-name" transform="translate(-13.195098876953125, 9.375)" style=""><g><rect class="background" style="stroke: none"></rect></g><text y="-10.1" style=""><tspan class="text-outer-tspan" x="0" y="-0.1em" dy="1.1em"><tspan font-style="normal" class="text-inner-tspan" font-weight="normal">name</tspan></tspan></text></g><g class="label attribute-keys" transform="translate(61.211151123046875, 9.375)" style=""><g><rect class="background" style="stroke: none"></rect></g><text y="-10.1" style=""><tspan class="text-outer-tspan" x="0" y="-0.1em" dy="1.1em"></tspan></text></g><g class="label attribute-comment" transform="translate(105.50717163085938, 9.375)" style=""><g><rect class="background" style="stroke: none"></rect></g><text y="-10.1" style=""><tspan class="text-outer-tspan" x="0" y="-0.1em" dy="1.1em"></tspan></text></g><g class="label attribute-type" transform="translate(-80.50717163085938, 47.125)" style=""><g><rect class="background" style="stroke: none"></rect></g><text y="-10.1" style=""><tspan class="text-outer-tspan" x="0" y="-0.1em" dy="1.1em"><tspan font-style="normal" class="text-inner-tspan" font-weight="normal">int</tspan></tspan></text></g><g class="label attribute-name" transform="translate(-13.195098876953125, 47.125)" style=""><g><rect class="background" style="stroke: none"></rect></g><text y="-10.1" style=""><tspan class="text-outer-tspan" x="0" y="-0.1em" dy="1.1em"><tspan font-style="normal" class="text-inner-tspan" font-weight="normal">credits</tspan></tspan></text></g><g class="label attribute-keys" transform="translate(61.211151123046875, 47.125)" style=""><g><rect class="background" style="stroke: none"></rect></g><text y="-10.1" style=""><tspan class="text-outer-tspan" x="0" y="-0.1em" dy="1.1em"></tspan></text></g><g class="label attribute-comment" transform="translate(105.50717163085938, 47.125)" style=""><g><rect class="background" style="stroke: none"></rect></g><text y="-10.1" style=""><tspan class="text-outer-tspan" x="0" y="-0.1em" dy="1.1em"></tspan></text></g><g class="divider"><path d="M-93.00717163085938 -37.75 C-31.296780070639315 -37.75, 30.413611489580745 -37.75, 93.00717163085938 -37.75 M-93.00717163085938 -37.75 C-38.100395909552475 -37.75, 16.806379811754425 -37.75, 93.00717163085938 -37.75" stroke="#9370DB" stroke-width="1.3" fill="none" stroke-dasharray="0 0"></path></g><g class="divider"><path d="M-25.695098876953125 -37.75 C-25.695098876953125 -3.870129703198927, -25.695098876953125 30.009740593602146, -25.695098876953125 75.5 M-25.695098876953125 -37.75 C-25.695098876953125 2.366568053240087, -25.695098876953125 42.483136106480174, -25.695098876953125 75.5" stroke="#9370DB" stroke-width="1.3" fill="none" stroke-dasharray="0 0"></path></g><g class="divider"><path d="M48.711151123046875 -37.75 C48.711151123046875 -5.936898091798096, 48.711151123046875 25.87620381640381, 48.711151123046875 75.5 M48.711151123046875 -37.75 C48.711151123046875 -8.001580894348582, 48.711151123046875 21.746838211302837, 48.711151123046875 75.5" stroke="#9370DB" stroke-width="1.3" fill="none" stroke-dasharray="0 0"></path></g><g class="divider"><path d="M-93.00717163085938 -37.75 C-52.057807791219844 -37.75, -11.108443951580313 -37.75, 93.00717163085938 -37.75 M-93.00717163085938 -37.75 C-50.012515965404525 -37.75, -7.017860299949675 -37.75, 93.00717163085938 -37.75" stroke="#9370DB" stroke-width="1.3" fill="none" stroke-dasharray="0 0"></path></g></g><g class="node default" id="entity-PROFESSOR-2" transform="translate(418.2633361816406, 83.5)"><g style=""><path d="M-111.35212707519531 -75.5 L111.35212707519531 -75.5 L111.35212707519531 75.5 L-111.35212707519531 75.5" stroke="none" stroke-width="0" fill="#ECECFF"></path><path d="M-111.35212707519531 -75.5 C-57.998013891814075 -75.5, -4.643900708432838 -75.5, 111.35212707519531 -75.5 M-111.35212707519531 -75.5 C-58.924368612955 -75.5, -6.496610150714687 -75.5, 111.35212707519531 -75.5 M111.35212707519531 -75.5 C111.35212707519531 -37.60708878593002, 111.35212707519531 0.2858224281399657, 111.35212707519531 75.5 M111.35212707519531 -75.5 C111.35212707519531 -18.98821555824913, 111.35212707519531 37.52356888350174, 111.35212707519531 75.5 M111.35212707519531 75.5 C55.44709641203292 75.5, -0.4579342511294726 75.5, -111.35212707519531 75.5 M111.35212707519531 75.5 C39.13920835266178 75.5, -33.07371036987175 75.5, -111.35212707519531 75.5 M-111.35212707519531 75.5 C-111.35212707519531 39.090785666355536, -111.35212707519531 2.681571332711073, -111.35212707519531 -75.5 M-111.35212707519531 75.5 C-111.35212707519531 18.951756243858625, -111.35212707519531 -37.59648751228275, -111.35212707519531 -75.5" stroke="#9370DB" stroke-width="1.3" fill="none" stroke-dasharray="0 0"></path></g><g style="" class="row-rect-odd"><path d="M-111.35212707519531 -37.75 L111.35212707519531 -37.75 L111.35212707519531 0 L-111.35212707519531 0" stroke="none" stroke-width="0" fill="hsl(240, 100%, 100%)"></path><path d="M-111.35212707519531 -37.75 C-37.77519836226014 -37.75, 35.80173035067503 -37.75, 111.35212707519531 -37.75 M-111.35212707519531 -37.75 C-35.42313412687693 -37.75, 40.50585882144145 -37.75, 111.35212707519531 -37.75 M111.35212707519531 -37.75 C111.35212707519531 -28.93433446515079, 111.35212707519531 -20.118668930301578, 111.35212707519531 0 M111.35212707519531 -37.75 C111.35212707519531 -26.908050004636685, 111.35212707519531 -16.066100009273374, 111.35212707519531 0 M111.35212707519531 0 C48.01699379903508 0, -15.318139477125158 0, -111.35212707519531 0 M111.35212707519531 0 C37.6187696956207 0, -36.114587683953914 0, -111.35212707519531 0 M-111.35212707519531 0 C-111.35212707519531 -9.128065870640665, -111.35212707519531 -18.25613174128133, -111.35212707519531 -37.75 M-111.35212707519531 0 C-111.35212707519531 -12.12377196633574, -111.35212707519531 -24.24754393267148, -111.35212707519531 -37.75" stroke="#9370DB" stroke-width="1.3" fill="none" stroke-dasharray="0 0"></path></g><g style="" class="row-rect-even"><path d="M-111.35212707519531 0 L111.35212707519531 0 L111.35212707519531 37.75 L-111.35212707519531 37.75" stroke="none" stroke-width="0" fill="hsl(240, 100%, 97.2745098039%)"></path><path d="M-111.35212707519531 0 C-49.900999559900804 0, 11.550127955393705 0, 111.35212707519531 0 M-111.35212707519531 0 C-40.4983150483275 0, 30.355496978540316 0, 111.35212707519531 0 M111.35212707519531 0 C111.35212707519531 12.892564525598166, 111.35212707519531 25.785129051196332, 111.35212707519531 37.75 M111.35212707519531 0 C111.35212707519531 9.456382551617626, 111.35212707519531 18.91276510323525, 111.35212707519531 37.75 M111.35212707519531 37.75 C64.0006847465227 37.75, 16.64924241785006 37.75, -111.35212707519531 37.75 M111.35212707519531 37.75 C36.068253175394645 37.75, -39.21562072440602 37.75, -111.35212707519531 37.75 M-111.35212707519531 37.75 C-111.35212707519531 26.272398433224158, -111.35212707519531 14.794796866448316, -111.35212707519531 0 M-111.35212707519531 37.75 C-111.35212707519531 26.67385546142629, -111.35212707519531 15.597710922852578, -111.35212707519531 0" stroke="#9370DB" stroke-width="1.3" fill="none" stroke-dasharray="0 0"></path></g><g style="" class="row-rect-odd"><path d="M-111.35212707519531 37.75 L111.35212707519531 37.75 L111.35212707519531 75.5 L-111.35212707519531 75.5" stroke="none" stroke-width="0" fill="hsl(240, 100%, 100%)"></path><path d="M-111.35212707519531 37.75 C-42.388212832594206 37.75, 26.5757014100069 37.75, 111.35212707519531 37.75 M-111.35212707519531 37.75 C-27.55020280820949 37.75, 56.25172145877633 37.75, 111.35212707519531 37.75 M111.35212707519531 37.75 C111.35212707519531 48.625590128400894, 111.35212707519531 59.50118025680179, 111.35212707519531 75.5 M111.35212707519531 37.75 C111.35212707519531 52.170744687220406, 111.35212707519531 66.59148937444081, 111.35212707519531 75.5 M111.35212707519531 75.5 C45.81878133813353 75.5, -19.714564398928246 75.5, -111.35212707519531 75.5 M111.35212707519531 75.5 C23.68755700020354 75.5, -63.97701307478823 75.5, -111.35212707519531 75.5 M-111.35212707519531 75.5 C-111.35212707519531 62.80207572028427, -111.35212707519531 50.10415144056854, -111.35212707519531 37.75 M-111.35212707519531 75.5 C-111.35212707519531 66.58024858052603, -111.35212707519531 57.660497161052064, -111.35212707519531 37.75" stroke="#9370DB" stroke-width="1.3" fill="none" stroke-dasharray="0 0"></path></g><g class="label name" transform="translate(-42.240074157714844, -66.125)" style=""><g><rect class="background" style="stroke: none"></rect></g><text y="-10.1" style=""><tspan class="text-outer-tspan" x="0" y="-0.1em" dy="1.1em"><tspan font-style="normal" class="text-inner-tspan" font-weight="normal">PROFESSOR</tspan></tspan></text></g><g class="label attribute-type" transform="translate(-98.85212707519531, -28.375)" style=""><g><rect class="background" style="stroke: none"></rect></g><text y="-10.1" style=""><tspan class="text-outer-tspan" x="0" y="-0.1em" dy="1.1em"><tspan font-style="normal" class="text-inner-tspan" font-weight="normal">int</tspan></tspan></text></g><g class="label attribute-name" transform="translate(-31.540054321289062, -28.375)" style=""><g><rect class="background" style="stroke: none"></rect></g><text y="-10.1" style=""><tspan class="text-outer-tspan" x="0" y="-0.1em" dy="1.1em"><tspan font-style="normal" class="text-inner-tspan" font-weight="normal">id</tspan></tspan></text></g><g class="label attribute-keys" transform="translate(79.55610656738281, -28.375)" style=""><g><rect class="background" style="stroke: none"></rect></g><text y="-10.1" style=""><tspan class="text-outer-tspan" x="0" y="-0.1em" dy="1.1em"><tspan font-style="normal" class="text-inner-tspan" font-weight="normal">PK</tspan></tspan></text></g><g class="label attribute-comment" transform="translate(123.85212707519531, -28.375)" style=""><g><rect class="background" style="stroke: none"></rect></g><text y="-10.1" style=""><tspan class="text-outer-tspan" x="0" y="-0.1em" dy="1.1em"></tspan></text></g><g class="label attribute-type" transform="translate(-98.85212707519531, 9.375)" style=""><g><rect class="background" style="stroke: none"></rect></g><text y="-10.1" style=""><tspan class="text-outer-tspan" x="0" y="-0.1em" dy="1.1em"><tspan font-style="normal" class="text-inner-tspan" font-weight="normal">string</tspan></tspan></text></g><g class="label attribute-name" transform="translate(-31.540054321289062, 9.375)" style=""><g><rect class="background" style="stroke: none"></rect></g><text y="-10.1" style=""><tspan class="text-outer-tspan" x="0" y="-0.1em" dy="1.1em"><tspan font-style="normal" class="text-inner-tspan" font-weight="normal">name</tspan></tspan></text></g><g class="label attribute-keys" transform="translate(79.55610656738281, 9.375)" style=""><g><rect class="background" style="stroke: none"></rect></g><text y="-10.1" style=""><tspan class="text-outer-tspan" x="0" y="-0.1em" dy="1.1em"></tspan></text></g><g class="label attribute-comment" transform="translate(123.85212707519531, 9.375)" style=""><g><rect class="background" style="stroke: none"></rect></g><text y="-10.1" style=""><tspan class="text-outer-tspan" x="0" y="-0.1em" dy="1.1em"></tspan></text></g><g class="label attribute-type" transform="translate(-98.85212707519531, 47.125)" style=""><g><rect class="background" style="stroke: none"></rect></g><text y="-10.1" style=""><tspan class="text-outer-tspan" x="0" y="-0.1em" dy="1.1em"><tspan font-style="normal" class="text-inner-tspan" font-weight="normal">string</tspan></tspan></text></g><g class="label attribute-name" transform="translate(-31.540054321289062, 47.125)" style=""><g><rect class="background" style="stroke: none"></rect></g><text y="-10.1" style=""><tspan class="text-outer-tspan" x="0" y="-0.1em" dy="1.1em"><tspan font-style="normal" class="text-inner-tspan" font-weight="normal">department</tspan></tspan></text></g><g class="label attribute-keys" transform="translate(79.55610656738281, 47.125)" style=""><g><rect class="background" style="stroke: none"></rect></g><text y="-10.1" style=""><tspan class="text-outer-tspan" x="0" y="-0.1em" dy="1.1em"></tspan></text></g><g class="label attribute-comment" transform="translate(123.85212707519531, 47.125)" style=""><g><rect class="background" style="stroke: none"></rect></g><text y="-10.1" style=""><tspan class="text-outer-tspan" x="0" y="-0.1em" dy="1.1em"></tspan></text></g><g class="divider"><path d="M-111.35212707519531 -37.75 C-22.74854288092176 -37.75, 65.85504131335179 -37.75, 111.35212707519531 -37.75 M-111.35212707519531 -37.75 C-60.39661709277067 -37.75, -9.441107110346024 -37.75, 111.35212707519531 -37.75" stroke="#9370DB" stroke-width="1.3" fill="none" stroke-dasharray="0 0"></path></g><g class="divider"><path d="M-44.04005432128906 -37.75 C-44.04005432128906 -8.108595131891096, -44.04005432128906 21.532809736217807, -44.04005432128906 75.5 M-44.04005432128906 -37.75 C-44.04005432128906 -4.317041935984591, -44.04005432128906 29.11591612803082, -44.04005432128906 75.5" stroke="#9370DB" stroke-width="1.3" fill="none" stroke-dasharray="0 0"></path></g><g class="divider"><path d="M67.05610656738281 -37.75 C67.05610656738281 -7.75443684866212, 67.05610656738281 22.24112630267576, 67.05610656738281 75.5 M67.05610656738281 -37.75 C67.05610656738281 3.085887847456519, 67.05610656738281 43.92177569491304, 67.05610656738281 75.5" stroke="#9370DB" stroke-width="1.3" fill="none" stroke-dasharray="0 0"></path></g><g class="divider"><path d="M-111.35212707519531 -37.75 C-22.909016246142144 -37.75, 65.53409458291102 -37.75, 111.35212707519531 -37.75 M-111.35212707519531 -37.75 C-64.9069096824287 -37.75, -18.46169228966211 -37.75, 111.35212707519531 -37.75" stroke="#9370DB" stroke-width="1.3" fill="none" stroke-dasharray="0 0"></path></g></g><g class="node default" id="entity-ENROLLMENT-3" transform="translate(257.4457092285156, 591.5)"><g style=""><path d="M-88.77279663085938 -75.5 L88.77279663085938 -75.5 L88.77279663085938 75.5 L-88.77279663085938 75.5" stroke="none" stroke-width="0" fill="#ECECFF"></path><path d="M-88.77279663085938 -75.5 C-39.0542768402642 -75.5, 10.664242950330973 -75.5, 88.77279663085938 -75.5 M-88.77279663085938 -75.5 C-17.88175259941046 -75.5, 53.00929143203845 -75.5, 88.77279663085938 -75.5 M88.77279663085938 -75.5 C88.77279663085938 -45.19168997948016, 88.77279663085938 -14.883379958960319, 88.77279663085938 75.5 M88.77279663085938 -75.5 C88.77279663085938 -18.608884837439923, 88.77279663085938 38.28223032512015, 88.77279663085938 75.5 M88.77279663085938 75.5 C22.580751515556614 75.5, -43.61129359974615 75.5, -88.77279663085938 75.5 M88.77279663085938 75.5 C50.783657552176464 75.5, 12.794518473493554 75.5, -88.77279663085938 75.5 M-88.77279663085938 75.5 C-88.77279663085938 27.45253502649053, -88.77279663085938 -20.59492994701894, -88.77279663085938 -75.5 M-88.77279663085938 75.5 C-88.77279663085938 29.33824734335584, -88.77279663085938 -16.823505313288322, -88.77279663085938 -75.5" stroke="#9370DB" stroke-width="1.3" fill="none" stroke-dasharray="0 0"></path></g><g style="" class="row-rect-odd"><path d="M-88.77279663085938 -37.75 L88.77279663085938 -37.75 L88.77279663085938 0 L-88.77279663085938 0" stroke="none" stroke-width="0" fill="hsl(240, 100%, 100%)"></path><path d="M-88.77279663085938 -37.75 C-44.47559103885582 -37.75, -0.17838544685226054 -37.75, 88.77279663085938 -37.75 M-88.77279663085938 -37.75 C-21.99797512952354 -37.75, 44.7768463718123 -37.75, 88.77279663085938 -37.75 M88.77279663085938 -37.75 C88.77279663085938 -22.782981166759065, 88.77279663085938 -7.815962333518129, 88.77279663085938 0 M88.77279663085938 -37.75 C88.77279663085938 -28.273458487687297, 88.77279663085938 -18.796916975374593, 88.77279663085938 0 M88.77279663085938 0 C23.37907315471908 0, -42.014650321421215 0, -88.77279663085938 0 M88.77279663085938 0 C38.584404383546044 0, -11.603987863767287 0, -88.77279663085938 0 M-88.77279663085938 0 C-88.77279663085938 -10.911349634705509, -88.77279663085938 -21.822699269411018, -88.77279663085938 -37.75 M-88.77279663085938 0 C-88.77279663085938 -8.878320744427826, -88.77279663085938 -17.756641488855653, -88.77279663085938 -37.75" stroke="#9370DB" stroke-width="1.3" fill="none" stroke-dasharray="0 0"></path></g><g style="" class="row-rect-even"><path d="M-88.77279663085938 0 L88.77279663085938 0 L88.77279663085938 37.75 L-88.77279663085938 37.75" stroke="none" stroke-width="0" fill="hsl(240, 100%, 97.2745098039%)"></path><path d="M-88.77279663085938 0 C-35.460167999815305 0, 17.852460631228766 0, 88.77279663085938 0 M-88.77279663085938 0 C-40.59154351037369 0, 7.589709610111996 0, 88.77279663085938 0 M88.77279663085938 0 C88.77279663085938 9.757366320089247, 88.77279663085938 19.514732640178494, 88.77279663085938 37.75 M88.77279663085938 0 C88.77279663085938 9.661528296957806, 88.77279663085938 19.323056593915613, 88.77279663085938 37.75 M88.77279663085938 37.75 C32.4278582780048 37.75, -23.91708007484978 37.75, -88.77279663085938 37.75 M88.77279663085938 37.75 C46.992375440327116 37.75, 5.211954249794857 37.75, -88.77279663085938 37.75 M-88.77279663085938 37.75 C-88.77279663085938 24.06053306378299, -88.77279663085938 10.371066127565982, -88.77279663085938 0 M-88.77279663085938 37.75 C-88.77279663085938 24.379662648401347, -88.77279663085938 11.009325296802693, -88.77279663085938 0" stroke="#9370DB" stroke-width="1.3" fill="none" stroke-dasharray="0 0"></path></g><g style="" class="row-rect-odd"><path d="M-88.77279663085938 37.75 L88.77279663085938 37.75 L88.77279663085938 75.5 L-88.77279663085938 75.5" stroke="none" stroke-width="0" fill="hsl(240, 100%, 100%)"></path><path d="M-88.77279663085938 37.75 C-27.575768773814637 37.75, 33.6212590832301 37.75, 88.77279663085938 37.75 M-88.77279663085938 37.75 C-38.5465478274493 37.75, 11.67970097596077 37.75, 88.77279663085938 37.75 M88.77279663085938 37.75 C88.77279663085938 50.962521196497235, 88.77279663085938 64.17504239299447, 88.77279663085938 75.5 M88.77279663085938 37.75 C88.77279663085938 47.85588131886756, 88.77279663085938 57.96176263773512, 88.77279663085938 75.5 M88.77279663085938 75.5 C36.00807675287803 75.5, -16.75664312510331 75.5, -88.77279663085938 75.5 M88.77279663085938 75.5 C26.978226855296867 75.5, -34.81634292026564 75.5, -88.77279663085938 75.5 M-88.77279663085938 75.5 C-88.77279663085938 64.32366599568412, -88.77279663085938 53.14733199136825, -88.77279663085938 37.75 M-88.77279663085938 75.5 C-88.77279663085938 61.73372263242986, -88.77279663085938 47.96744526485973, -88.77279663085938 37.75" stroke="#9370DB" stroke-width="1.3" fill="none" stroke-dasharray="0 0"></path></g><g class="label name" transform="translate(-48.404090881347656, -66.125)" style=""><g><rect class="background" style="stroke: none"></rect></g><text y="-10.1" style=""><tspan class="text-outer-tspan" x="0" y="-0.1em" dy="1.1em"><tspan font-style="normal" class="text-inner-tspan" font-weight="normal">ENROLLMENT</tspan></tspan></text></g><g class="label attribute-type" transform="translate(-76.27279663085938, -28.375)" style=""><g><rect class="background" style="stroke: none"></rect></g><text y="-10.1" style=""><tspan class="text-outer-tspan" x="0" y="-0.1em" dy="1.1em"><tspan font-style="normal" class="text-inner-tspan" font-weight="normal">int</tspan></tspan></text></g><g class="label attribute-name" transform="translate(-8.960723876953125, -28.375)" style=""><g><rect class="background" style="stroke: none"></rect></g><text y="-10.1" style=""><tspan class="text-outer-tspan" x="0" y="-0.1em" dy="1.1em"><tspan font-style="normal" class="text-inner-tspan" font-weight="normal">id</tspan></tspan></text></g><g class="label attribute-keys" transform="translate(56.976776123046875, -28.375)" style=""><g><rect class="background" style="stroke: none"></rect></g><text y="-10.1" style=""><tspan class="text-outer-tspan" x="0" y="-0.1em" dy="1.1em"><tspan font-style="normal" class="text-inner-tspan" font-weight="normal">PK</tspan></tspan></text></g><g class="label attribute-comment" transform="translate(101.27279663085938, -28.375)" style=""><g><rect class="background" style="stroke: none"></rect></g><text y="-10.1" style=""><tspan class="text-outer-tspan" x="0" y="-0.1em" dy="1.1em"></tspan></text></g><g class="label attribute-type" transform="translate(-76.27279663085938, 9.375)" style=""><g><rect class="background" style="stroke: none"></rect></g><text y="-10.1" style=""><tspan class="text-outer-tspan" x="0" y="-0.1em" dy="1.1em"><tspan font-style="normal" class="text-inner-tspan" font-weight="normal">float</tspan></tspan></text></g><g class="label attribute-name" transform="translate(-8.960723876953125, 9.375)" style=""><g><rect class="background" style="stroke: none"></rect></g><text y="-10.1" style=""><tspan class="text-outer-tspan" x="0" y="-0.1em" dy="1.1em"><tspan font-style="normal" class="text-inner-tspan" font-weight="normal">grade</tspan></tspan></text></g><g class="label attribute-keys" transform="translate(56.976776123046875, 9.375)" style=""><g><rect class="background" style="stroke: none"></rect></g><text y="-10.1" style=""><tspan class="text-outer-tspan" x="0" y="-0.1em" dy="1.1em"></tspan></text></g><g class="label attribute-comment" transform="translate(101.27279663085938, 9.375)" style=""><g><rect class="background" style="stroke: none"></rect></g><text y="-10.1" style=""><tspan class="text-outer-tspan" x="0" y="-0.1em" dy="1.1em"></tspan></text></g><g class="label attribute-type" transform="translate(-76.27279663085938, 47.125)" style=""><g><rect class="background" style="stroke: none"></rect></g><text y="-10.1" style=""><tspan class="text-outer-tspan" x="0" y="-0.1em" dy="1.1em"><tspan font-style="normal" class="text-inner-tspan" font-weight="normal">string</tspan></tspan></text></g><g class="label attribute-name" transform="translate(-8.960723876953125, 47.125)" style=""><g><rect class="background" style="stroke: none"></rect></g><text y="-10.1" style=""><tspan class="text-outer-tspan" x="0" y="-0.1em" dy="1.1em"><tspan font-style="normal" class="text-inner-tspan" font-weight="normal">term</tspan></tspan></text></g><g class="label attribute-keys" transform="translate(56.976776123046875, 47.125)" style=""><g><rect class="background" style="stroke: none"></rect></g><text y="-10.1" style=""><tspan class="text-outer-tspan" x="0" y="-0.1em" dy="1.1em"></tspan></text></g><g class="label attribute-comment" transform="translate(101.27279663085938, 47.125)" style=""><g><rect class="background" style="stroke: none"></rect></g><text y="-10.1" style=""><tspan class="text-outer-tspan" x="0" y="-0.1em" dy="1.1em"></tspan></text></g><g class="divider"><path d="M-88.77279663085938 -37.75 C-29.17544355525652 -37.75, 30.421909520346333 -37.75, 88.77279663085938 -37.75 M-88.77279663085938 -37.75 C-26.690976821066215 -37.75, 35.390842988726945 -37.75, 88.77279663085938 -37.75" stroke="#9370DB" stroke-width="1.3" fill="none" stroke-dasharray="0 0"></path></g><g class="divider"><path d="M-21.460723876953125 -37.75 C-21.460723876953125 -3.7982282568252757, -21.460723876953125 30.15354348634945, -21.460723876953125 75.5 M-21.460723876953125 -37.75 C-21.460723876953125 -9.910439369784342, -21.460723876953125 17.929121260431316, -21.460723876953125 75.5" stroke="#9370DB" stroke-width="1.3" fill="none" stroke-dasharray="0 0"></path></g><g class="divider"><path d="M44.476776123046875 -37.75 C44.476776123046875 -8.44004411042837, 44.476776123046875 20.86991177914326, 44.476776123046875 75.5 M44.476776123046875 -37.75 C44.476776123046875 -5.283802260413772, 44.476776123046875 27.182395479172456, 44.476776123046875 75.5" stroke="#9370DB" stroke-width="1.3" fill="none" stroke-dasharray="0 0"></path></g><g class="divider"><path d="M-88.77279663085938 -37.75 C-47.00018841311522 -37.75, -5.227580195371061 -37.75, 88.77279663085938 -37.75 M-88.77279663085938 -37.75 C-36.06884845937 -37.75, 16.63509971211937 -37.75, 88.77279663085938 -37.75" stroke="#9370DB" stroke-width="1.3" fill="none" stroke-dasharray="0 0"></path></g></g></g></g></g></svg>