<svg id="container" width="681.843505859375" xmlns="http://www.w3.org/2000/svg" class="classDiagram" height="409" viewBox="0 0 681.843505859375 409" role="graphics-document document" aria-roledescription="class"><style>#container{font-family:"trebuchet ms",verdana,arial,sans-serif;font-size:16px;fill:#333;}@keyframes edge-animation-frame{from{stroke-dashoffset:0;}}@keyframes dash{to{stroke-dashoffset:0;}}#container .edge-animation-slow{stroke-dasharray:9,5!important;stroke-dashoffset:900;animation:dash 50s linear infinite;stroke-linecap:round;}#container .edge-animation-fast{stroke-dasharray:9,5!important;stroke-dashoffset:900;animation:dash 20s linear infinite;stroke-linecap:round;}#container .error-icon{fill:#552222;}#container .error-text{fill:#552222;stroke:#552222;}#container .edge-thickness-normal{stroke-width:1px;}#container .edge-thickness-thick{stroke-width:3.5px;}#container .edge-pattern-solid{stroke-dasharray:0;}#container .edge-thickness-invisible{stroke-width:0;fill:none;}#container .edge-pattern-dashed{stroke-dasharray:3;}#container .edge-pattern-dotted{stroke-dasharray:2;}#container .marker{fill:#333333;stroke:#333333;}#container .marker.cross{stroke:#333333;}#container svg{font-family:"trebuchet ms",verdana,arial,sans-serif;font-size:16px;}#container p{margin:0;}#container g.classGroup text{fill:#9370DB;stroke:none;font-family:"trebuchet ms",verdana,arial,sans-serif;font-size:10px;}#container g.classGroup text .title{font-weight:bolder;}#container .nodeLabel,#container .edgeLabel{color:#131300;}#container .edgeLabel .label rect{fill:#ECECFF;}#container .label text{fill:#131300;}#container .labelBkg{background:#ECECFF;}#container .edgeLabel .label span{background:#ECECFF;}#container .classTitle{font-weight:bolder;}#container .node rect,#container .node circle,#container .node ellipse,#container .node polygon,#container .node path{fill:#ECECFF;stroke:#9370DB;stroke-width:1px;}#container .divider{stroke:#9370DB;stroke-width:1;}#container g.clickable{cursor:pointer;}#container g.classGroup rect{fill:#ECECFF;stroke:#9370DB;}#container g.classGroup line{stroke:#9370DB;stroke-width:1;}#container .classLabel .box{stroke:none;stroke-width:0;fill:#ECECFF;opacity:0.5;}#container .classLabel .label{fill:#9370DB;font-size:10px;}#container .relation{stroke:#333333;stroke-width:1;fill:none;}#container .dashed-line{stroke-dasharray:3;}#container .dotted-line{stroke-dasharray:1 2;}#container #compositionStart,#container .composition{fill:#333333!important;stroke:#333333!important;stroke-width:1;}#container #compositionEnd,#container .composition{fill:#333333!important;stroke:#333333!important;stroke-width:1;}#container #dependencyStart,#container .dependency{fill:#333333!important;stroke:#333333!important;stroke-width:1;}#container #dependencyStart,#container .dependency{fill:#333333!important;stroke:#333333!important;stroke-width:1;}#container #extensionStart,#container .extension{fill:transparent!important;stroke:#333333!important;stroke-width:1;}#container #extensionEnd,#container .extension{fill:transparent!important;stroke:#333333!important;stroke-width:1;}#container #aggregationStart,#container .aggregation{fill:transparent!important;stroke:#333333!important;stroke-width:1;}#container #aggregationEnd,#container .aggregation{fill:transparent!important;stroke:#333333!important;stroke-width:1;}#container #lollipopStart,#container .lollipop{fill:#ECECFF!important;stroke:#333333!important;stroke-width:1;}#container #lollipopEnd,#container .lollipop{fill:#ECECFF!important;stroke:#333333!important;stroke-width:1;}#container .edgeTerminals{font-size:11px;line-height:initial;}#container .classTitleText{text-anchor:middle;font-size:18px;fill:#333;}#container .label-icon{display:inline-block;height:1em;overflow:visible;vertical-align:-0.125em;}#container .node .label-icon path{fill:currentColor;stroke:revert;stroke-width:revert;}#container :root{--mermaid-font-family:"trebuchet ms",verdana,arial,sans-serif;}</style><g><defs><marker id="container_class-aggregationStart" class="marker aggregation class" refX="18" refY="7" markerWidth="190" markerHeight="240" orient="auto"><path d="M 18,7 L9,13 L1,7 L9,1 Z"></path></marker></defs><defs><marker id="container_class-aggregationEnd" class="marker aggregation class" refX="1" refY="7" markerWidth="20" markerHeight="28" orient="auto"><path d="M 18,7 L9,13 L1,7 L9,1 Z"></path></marker></defs><defs><marker id="container_class-extensionStart" class="marker extension class" refX="18" refY="7" markerWidth="190" markerHeight="240" orient="auto"><path d="M 1,7 L18,13 V 1 Z"></path></marker></defs><defs><marker id="container_class-extensionEnd" class="marker extension class" refX="1" refY="7" markerWidth="20" markerHeight="28" orient="auto"><path d="M 1,1 V 13 L18,7 Z"></path></marker></defs><defs><marker id="container_class-compositionStart" class="marker composition class" refX="18" refY="7" markerWidth="190" markerHeight="240" orient="auto"><path d="M 18,7 L9,13 L1,7 L9,1 Z"></path></marker></defs><defs><marker id="container_class-compositionEnd" class="marker composition class" refX="1" refY="7" markerWidth="20" markerHeight="28" orient="auto"><path d="M 18,7 L9,13 L1,7 L9,1 Z"></path></marker></defs><defs><marker id="container_class-dependencyStart" class="marker dependency class" refX="6" refY="7" markerWidth="190" markerHeight="240" orient="auto"><path d="M 5,7 L9,13 L1,7 L9,1 Z"></path></marker></defs><defs><marker id="container_class-dependencyEnd" class="marker dependency class" refX="13" refY="7" markerWidth="20" markerHeight="28" orient="auto"><path d="M 18,7 L9,13 L14,7 L9,1 Z"></path></marker></defs><defs><marker id="container_class-lollipopStart" class="marker lollipop class" refX="13" refY="7" markerWidth="190" markerHeight="240" orient="auto"><circle stroke="black" fill="transparent" cx="7" cy="7" r="6"></circle></marker></defs><defs><marker id="container_class-lollipopEnd" class="marker lollipop class" refX="1" refY="7" markerWidth="190" markerHeight="240" orient="auto"><circle stroke="black" fill="transparent" cx="7" cy="7" r="6"></circle></marker></defs><g class="root"><g class="clusters"></g><g class="edgePaths"><path d="M221.432,146.045L200.88,155.537C180.329,165.03,139.226,184.015,118.675,199.507C98.123,215,98.123,227,98.123,233L98.123,239" id="id_Shape_Circle_1" class="edge-thickness-normal edge-pattern-solid relation" style=";;;" data-edge="true" data-et="edge" data-id="id_Shape_Circle_1" data-points="W3sieCI6MjM3LjA5MTgyNzM5MjU3ODEyLCJ5IjoxMzguODExNDA5MDAxMjYzNTd9LHsieCI6OTguMTIzMjM3NjA5ODYzMjgsInkiOjIwM30seyJ4Ijo5OC4xMjMyMzc2MDk4NjMyOCwieSI6MjM5fV0=" marker-start="url(#container_class-extensionStart)"></path><path d="M336.274,195.25L336.274,196.542C336.274,197.833,336.274,200.417,336.274,205.875C336.274,211.333,336.274,219.667,336.274,223.833L336.274,228" id="id_Shape_Rectangle_2" class="edge-thickness-normal edge-pattern-solid relation" style=";;;" data-edge="true" data-et="edge" data-id="id_Shape_Rectangle_2" data-points="W3sieCI6MzM2LjI3MzczNTA0NjM4NjcsInkiOjE3OH0seyJ4IjozMzYuMjczNzM1MDQ2Mzg2NywieSI6MjAzfSx7IngiOjMzNi4yNzM3MzUwNDYzODY3LCJ5IjoyMjh9XQ==" marker-start="url(#container_class-extensionStart)"></path><path d="M451.168,145.053L472.486,154.711C493.803,164.369,536.438,183.684,557.755,197.509C579.072,211.333,579.072,219.667,579.072,223.833L579.072,228" id="id_Shape_Triangle_3" class="edge-thickness-normal edge-pattern-solid relation" style=";;;" data-edge="true" data-et="edge" data-id="id_Shape_Triangle_3" data-points="W3sieCI6NDM1LjQ1NTY0MjcwMDE5NTMsInkiOjEzNy45MzQ0MTc0NDI5ODl9LHsieCI6NTc5LjA3MjI1MDM2NjIxMDksInkiOjIwM30seyJ4Ijo1NzkuMDcyMjUwMzY2MjEwOSwieSI6MjI4fV0=" marker-start="url(#container_class-extensionStart)"></path></g><g class="edgeLabels"><g><rect class="background" style="stroke: none"></rect></g><g><rect class="background" style="stroke: none"></rect></g><g><rect class="background" style="stroke: none"></rect></g><g class="edgeLabel"><g class="label" data-id="id_Shape_Circle_1" transform="translate(0, 0)"><text y="-10.1"><tspan class="text-outer-tspan" x="0" y="-0.1em" dy="1.1em"></tspan></text></g></g><g class="edgeLabel"><g class="label" data-id="id_Shape_Rectangle_2" transform="translate(0, 0)"><text y="-10.1"><tspan class="text-outer-tspan" x="0" y="-0.1em" dy="1.1em"></tspan></text></g></g><g class="edgeLabel"><g class="label" data-id="id_Shape_Triangle_3" transform="translate(0, 0)"><text y="-10.1"><tspan class="text-outer-tspan" x="0" y="-0.1em" dy="1.1em"></tspan></text></g></g></g><g class="nodes"><g class="node default" id="classId-Shape-0" transform="translate(336.2737350463867, 93)"><g class="basic label-container"><path d="M-99.1819076538086 -85 L99.1819076538086 -85 L99.1819076538086 85 L-99.1819076538086 85" stroke="none" stroke-width="0" fill="#ECECFF" style=""></path><path d="M-99.1819076538086 -85 C-26.247924016798564 -85, 46.686059620211466 -85, 99.1819076538086 -85 M-99.1819076538086 -85 C-25.259763236260824 -85, 48.662381181286946 -85, 99.1819076538086 -85 M99.1819076538086 -85 C99.1819076538086 -41.45359010711154, 99.1819076538086 2.092819785776925, 99.1819076538086 85 M99.1819076538086 -85 C99.1819076538086 -28.28487825262755, 99.1819076538086 28.4302434947449, 99.1819076538086 85 M99.1819076538086 85 C49.790865879741276 85, 0.3998241056739573 85, -99.1819076538086 85 M99.1819076538086 85 C59.14068889315669 85, 19.09947013250479 85, -99.1819076538086 85 M-99.1819076538086 85 C-99.1819076538086 28.254323147531842, -99.1819076538086 -28.491353704936316, -99.1819076538086 -85 M-99.1819076538086 85 C-99.1819076538086 25.412253443657583, -99.1819076538086 -34.17549311268483, -99.1819076538086 -85" stroke="#9370DB" stroke-width="1.3" fill="none" stroke-dasharray="0 0" style=""></path></g><g class="annotation-group text" transform="translate(-38.609375, -65)"><g class="label" style="" transform="translate(0,-9.5)"><g><rect class="background" style="stroke: none"></rect><text y="-10.1" style=""><tspan class="text-outer-tspan" x="0" y="-0.1em" dy="1.1em"><tspan font-style="normal" class="text-inner-tspan" font-weight="normal">«abstract»</tspan></tspan></text></g></g></g><g class="label-group text" transform="translate(-22.85204315185547, -46)"><g class="label" style="font-weight: bolder" transform="translate(0,-9.5)"><g><rect class="background" style="stroke: none"></rect><text y="-10.1" style=""><tspan class="text-outer-tspan" x="0" y="-0.1em" dy="1.1em" font-weight=""><tspan font-style="normal" class="text-inner-tspan" font-weight="">Shape</tspan></tspan></text></g></g></g><g class="members-group text" transform="translate(-87.1819076538086, -3)"><g class="label" style="" transform="translate(0,-9.5)"><g><rect class="background" style="stroke: none"></rect><text y="-10.1" style=""><tspan class="text-outer-tspan" x="0" y="-0.1em" dy="1.1em"><tspan font-style="normal" class="text-inner-tspan" font-weight="normal">+String</tspan><tspan font-style="normal" class="text-inner-tspan" font-weight="normal"> color</tspan></tspan></text></g></g></g><g class="methods-group text" transform="translate(-87.1819076538086, 40)"><g class="label" style="" transform="translate(0,-9.5)"><g><rect class="background" style="stroke: none"></rect><text y="-10.1" style=""><tspan class="text-outer-tspan" x="0" y="-0.1em" dy="1.1em"><tspan font-style="normal" class="text-inner-tspan" font-weight="normal">+area()</tspan><tspan font-style="normal" class="text-inner-tspan" font-weight="normal"> :</tspan><tspan font-style="normal" class="text-inner-tspan" font-weight="normal"> float</tspan></tspan></text></g></g><g class="label" style="" transform="translate(0,12.5)"><g><rect class="background" style="stroke: none"></rect><text y="-10.1" style=""><tspan class="text-outer-tspan" x="0" y="-0.1em" dy="1.1em"><tspan font-style="normal" class="text-inner-tspan" font-weight="normal">+perimeter()</tspan><tspan font-style="normal" class="text-inner-tspan" font-weight="normal"> :</tspan><tspan font-style="normal" class="text-inner-tspan" font-weight="normal"> float</tspan></tspan></text></g></g></g><g class="divider" style=""><path d="M-99.1819076538086 -23 C-44.4350425604481 -23, 10.311822532912387 -23, 99.1819076538086 -23 M-99.1819076538086 -23 C-57.24879148004291 -23, -15.315675306277228 -23, 99.1819076538086 -23" stroke="#9370DB" stroke-width="1.3" fill="none" stroke-dasharray="0 0" style=""></path></g><g class="divider" style=""><path d="M-99.1819076538086 20 C-46.17396154739794 20, 6.83398455901272 20, 99.1819076538086 20 M-99.1819076538086 20 C-30.421096942092547 20, 38.3397137696235 20, 99.1819076538086 20" stroke="#9370DB" stroke-width="1.3" fill="none" stroke-dasharray="0 0" style=""></path></g></g><g class="node default" id="classId-Circle-1" transform="translate(98.12323760986328, 314.5)"><g class="basic label-container"><path d="M-90.12323760986328 -75.5 L90.12323760986328 -75.5 L90.12323760986328 75.5 L-90.12323760986328 75.5" stroke="none" stroke-width="0" fill="#ECECFF" style=""></path><path d="M-90.12323760986328 -75.5 C-24.351333134346348 -75.5, 41.420571341170586 -75.5, 90.12323760986328 -75.5 M-90.12323760986328 -75.5 C-53.62470000344535 -75.5, -17.126162397027414 -75.5, 90.12323760986328 -75.5 M90.12323760986328 -75.5 C90.12323760986328 -29.225531149018686, 90.12323760986328 17.04893770196263, 90.12323760986328 75.5 M90.12323760986328 -75.5 C90.12323760986328 -31.149383444303595, 90.12323760986328 13.20123311139281, 90.12323760986328 75.5 M90.12323760986328 75.5 C51.3252493663895 75.5, 12.527261122915718 75.5, -90.12323760986328 75.5 M90.12323760986328 75.5 C36.493934938032325 75.5, -17.13536773379863 75.5, -90.12323760986328 75.5 M-90.12323760986328 75.5 C-90.12323760986328 15.290850778060395, -90.12323760986328 -44.91829844387921, -90.12323760986328 -75.5 M-90.12323760986328 75.5 C-90.12323760986328 17.160630984485422, -90.12323760986328 -41.178738031029155, -90.12323760986328 -75.5" stroke="#9370DB" stroke-width="1.3" fill="none" stroke-dasharray="0 0" style=""></path></g><g class="annotation-group text" transform="translate(0, -55.5)"></g><g class="label-group text" transform="translate(-20.492034912109375, -55.5)"><g class="label" style="font-weight: bolder" transform="translate(0,-9.5)"><g><rect class="background" style="stroke: none"></rect><text y="-10.1" style=""><tspan class="text-outer-tspan" x="0" y="-0.1em" dy="1.1em" font-weight=""><tspan font-style="normal" class="text-inner-tspan" font-weight="">Circle</tspan></tspan></text></g></g></g><g class="members-group text" transform="translate(-78.12323760986328, -12.5)"><g class="label" style="" transform="translate(0,-9.5)"><g><rect class="background" style="stroke: none"></rect><text y="-10.1" style=""><tspan class="text-outer-tspan" x="0" y="-0.1em" dy="1.1em"><tspan font-style="normal" class="text-inner-tspan" font-weight="normal">+float</tspan><tspan font-style="normal" class="text-inner-tspan" font-weight="normal"> radius</tspan></tspan></text></g></g></g><g class="methods-group text" transform="translate(-78.12323760986328, 30.5)"><g class="label" style="" transform="translate(0,-9.5)"><g><rect class="background" style="stroke: none"></rect><text y="-10.1" style=""><tspan class="text-outer-tspan" x="0" y="-0.1em" dy="1.1em"><tspan font-style="normal" class="text-inner-tspan" font-weight="normal">+area()</tspan><tspan font-style="normal" class="text-inner-tspan" font-weight="normal"> :</tspan><tspan font-style="normal" class="text-inner-tspan" font-weight="normal"> float</tspan></tspan></text></g></g><g class="label" style="" transform="translate(0,12.5)"><g><rect class="background" style="stroke: none"></rect><text y="-10.1" style=""><tspan class="text-outer-tspan" x="0" y="-0.1em" dy="1.1em"><tspan font-style="normal" class="text-inner-tspan" font-weight="normal">+perimeter()</tspan><tspan font-style="normal" class="text-inner-tspan" font-weight="normal"> :</tspan><tspan font-style="normal" class="text-inner-tspan" font-weight="normal"> float</tspan></tspan></text></g></g></g><g class="divider" style=""><path d="M-90.12323760986328 -32.5 C-43.95231017738227 -32.5, 2.218617255098735 -32.5, 90.12323760986328 -32.5 M-90.12323760986328 -32.5 C-24.874887735394722 -32.5, 40.37346213907384 -32.5, 90.12323760986328 -32.5" stroke="#9370DB" stroke-width="1.3" fill="none" stroke-dasharray="0 0" style=""></path></g><g class="divider" style=""><path d="M-90.12323760986328 10.5 C-38.42843212478463 10.5, 13.266373360294025 10.5, 90.12323760986328 10.5 M-90.12323760986328 10.5 C-38.093126698106786 10.5, 13.936984213649708 10.5, 90.12323760986328 10.5" stroke="#9370DB" stroke-width="1.3" fill="none" stroke-dasharray="0 0" style=""></path></g></g><g class="node default" id="classId-Rectangle-2" transform="translate(336.2737350463867, 314.5)"><g class="basic label-container"><path d="M-98.02725982666016 -86.5 L98.02725982666016 -86.5 L98.02725982666016 86.5 L-98.02725982666016 86.5" stroke="none" stroke-width="0" fill="#ECECFF" style=""></path><path d="M-98.02725982666016 -86.5 C-31.541573255427252 -86.5, 34.94411331580565 -86.5, 98.02725982666016 -86.5 M-98.02725982666016 -86.5 C-36.874808172435195 -86.5, 24.277643481789767 -86.5, 98.02725982666016 -86.5 M98.02725982666016 -86.5 C98.02725982666016 -27.537643098651273, 98.02725982666016 31.424713802697454, 98.02725982666016 86.5 M98.02725982666016 -86.5 C98.02725982666016 -42.17499763358119, 98.02725982666016 2.1500047328376155, 98.02725982666016 86.5 M98.02725982666016 86.5 C53.19397108502984 86.5, 8.360682343399517 86.5, -98.02725982666016 86.5 M98.02725982666016 86.5 C50.02162433396993 86.5, 2.0159888412797073 86.5, -98.02725982666016 86.5 M-98.02725982666016 86.5 C-98.02725982666016 29.214127378868234, -98.02725982666016 -28.071745242263532, -98.02725982666016 -86.5 M-98.02725982666016 86.5 C-98.02725982666016 24.447402104997607, -98.02725982666016 -37.605195790004785, -98.02725982666016 -86.5" stroke="#9370DB" stroke-width="1.3" fill="none" stroke-dasharray="0 0" style=""></path></g><g class="annotation-group text" transform="translate(0, -66.5)"></g><g class="label-group text" transform="translate(-36.300071716308594, -66.5)"><g class="label" style="font-weight: bolder" transform="translate(0,-9.5)"><g><rect class="background" style="stroke: none"></rect><text y="-10.1" style=""><tspan class="text-outer-tspan" x="0" y="-0.1em" dy="1.1em" font-weight=""><tspan font-style="normal" class="text-inner-tspan" font-weight="">Rectangle</tspan></tspan></text></g></g></g><g class="members-group text" transform="translate(-86.02725982666016, -23.5)"><g class="label" style="" transform="translate(0,-9.5)"><g><rect class="background" style="stroke: none"></rect><text y="-10.1" style=""><tspan class="text-outer-tspan" x="0" y="-0.1em" dy="1.1em"><tspan font-style="normal" class="text-inner-tspan" font-weight="normal">+float</tspan><tspan font-style="normal" class="text-inner-tspan" font-weight="normal"> width</tspan></tspan></text></g></g><g class="label" style="" transform="translate(0,12.5)"><g><rect class="background" style="stroke: none"></rect><text y="-10.1" style=""><tspan class="text-outer-tspan" x="0" y="-0.1em" dy="1.1em"><tspan font-style="normal" class="text-inner-tspan" font-weight="normal">+float</tspan><tspan font-style="normal" class="text-inner-tspan" font-weight="normal"> height</tspan></tspan></text></g></g></g><g class="methods-group text" transform="translate(-86.02725982666016, 41.5)"><g class="label" style="" transform="translate(0,-9.5)"><g><rect class="background" style="stroke: none"></rect><text y="-10.1" style=""><tspan class="text-outer-tspan" x="0" y="-0.1em" dy="1.1em"><tspan font-style="normal" class="text-inner-tspan" font-weight="normal">+area()</tspan><tspan font-style="normal" class="text-inner-tspan" font-weight="normal"> :</tspan><tspan font-style="normal" class="text-inner-tspan" font-weight="normal"> float</tspan></tspan></text></g></g><g class="label" style="" transform="translate(0,12.5)"><g><rect class="background" style="stroke: none"></rect><text y="-10.1" style=""><tspan class="text-outer-tspan" x="0" y="-0.1em" dy="1.1em"><tspan font-style="normal" class="text-inner-tspan" font-weight="normal">+perimeter()</tspan><tspan font-style="normal" class="text-inner-tspan" font-weight="normal"> :</tspan><tspan font-style="normal" class="text-inner-tspan" font-weight="normal"> float</tspan></tspan></text></g></g></g><g class="divider" style=""><path d="M-98.02725982666016 -43.5 C-41.72703941206657 -43.5, 14.573181002527022 -43.5, 98.02725982666016 -43.5 M-98.02725982666016 -43.5 C-38.390313470812146 -43.5, 21.246632885035865 -43.5, 98.02725982666016 -43.5" stroke="#9370DB" stroke-width="1.3" fill="none" stroke-dasharray="0 0" style=""></path></g><g class="divider" style=""><path d="M-98.02725982666016 21.5 C-24.82099895959317 21.5, 48.38526190747382 21.5, 98.02725982666016 21.5 M-98.02725982666016 21.5 C-52.074052908532494 21.5, -6.120845990404831 21.5, 98.02725982666016 21.5" stroke="#9370DB" stroke-width="1.3" fill="none" stroke-dasharray="0 0" style=""></path></g></g><g class="node default" id="classId-Triangle-3" transform="translate(579.0722503662109, 314.5)"><g class="basic label-container"><path d="M-94.77125549316406 -86.5 L94.77125549316406 -86.5 L94.77125549316406 86.5 L-94.77125549316406 86.5" stroke="none" stroke-width="0" fill="#ECECFF" style=""></path><path d="M-94.77125549316406 -86.5 C-25.63339247009864 -86.5, 43.50447055296678 -86.5, 94.77125549316406 -86.5 M-94.77125549316406 -86.5 C-35.39769628967157 -86.5, 23.97586291382092 -86.5, 94.77125549316406 -86.5 M94.77125549316406 -86.5 C94.77125549316406 -30.451004655697453, 94.77125549316406 25.597990688605094, 94.77125549316406 86.5 M94.77125549316406 -86.5 C94.77125549316406 -20.866980290011156, 94.77125549316406 44.76603941997769, 94.77125549316406 86.5 M94.77125549316406 86.5 C51.813802521585295 86.5, 8.856349550006527 86.5, -94.77125549316406 86.5 M94.77125549316406 86.5 C23.027737037160946 86.5, -48.71578141884217 86.5, -94.77125549316406 86.5 M-94.77125549316406 86.5 C-94.77125549316406 41.21837551096838, -94.77125549316406 -4.063248978063243, -94.77125549316406 -86.5 M-94.77125549316406 86.5 C-94.77125549316406 31.837673119799604, -94.77125549316406 -22.824653760400793, -94.77125549316406 -86.5" stroke="#9370DB" stroke-width="1.3" fill="none" stroke-dasharray="0 0" style=""></path></g><g class="annotation-group text" transform="translate(0, -66.5)"></g><g class="label-group text" transform="translate(-29.788063049316406, -66.5)"><g class="label" style="font-weight: bolder" transform="translate(0,-9.5)"><g><rect class="background" style="stroke: none"></rect><text y="-10.1" style=""><tspan class="text-outer-tspan" x="0" y="-0.1em" dy="1.1em" font-weight=""><tspan font-style="normal" class="text-inner-tspan" font-weight="">Triangle</tspan></tspan></text></g></g></g><g class="members-group text" transform="translate(-82.77125549316406, -23.5)"><g class="label" style="" transform="translate(0,-9.5)"><g><rect class="background" style="stroke: none"></rect><text y="-10.1" style=""><tspan class="text-outer-tspan" x="0" y="-0.1em" dy="1.1em"><tspan font-style="normal" class="text-inner-tspan" font-weight="normal">+float</tspan><tspan font-style="normal" class="text-inner-tspan" font-weight="normal"> base</tspan></tspan></text></g></g><g class="label" style="" transform="translate(0,12.5)"><g><rect class="background" style="stroke: none"></rect><text y="-10.1" style=""><tspan class="text-outer-tspan" x="0" y="-0.1em" dy="1.1em"><tspan font-style="normal" class="text-inner-tspan" font-weight="normal">+float</tspan><tspan font-style="normal" class="text-inner-tspan" font-weight="normal"> height</tspan></tspan></text></g></g></g><g class="methods-group text" transform="translate(-82.77125549316406, 41.5)"><g class="label" style="" transform="translate(0,-9.5)"><g><rect class="background" style="stroke: none"></rect><text y="-10.1" style=""><tspan class="text-outer-tspan" x="0" y="-0.1em" dy="1.1em"><tspan font-style="normal" class="text-inner-tspan" font-weight="normal">+area()</tspan><tspan font-style="normal" class="text-inner-tspan" font-weight="normal"> :</tspan><tspan font-style="normal" class="text-inner-tspan" font-weight="normal"> float</tspan></tspan></text></g></g><g class="label" style="" transform="translate(0,12.5)"><g><rect class="background" style="stroke: none"></rect><text y="-10.1" style=""><tspan class="text-outer-tspan" x="0" y="-0.1em" dy="1.1em"><tspan font-style="normal" class="text-inner-tspan" font-weight="normal">+perimeter()</tspan><tspan font-style="normal" class="text-inner-tspan" font-weight="normal"> :</tspan><tspan font-style="normal" class="text-inner-tspan" font-weight="normal"> float</tspan></tspan></text></g></g></g><g class="divider" style=""><path d="M-94.77125549316406 -43.5 C-41.23762784139273 -43.5, 12.295999810378603 -43.5, 94.77125549316406 -43.5 M-94.77125549316406 -43.5 C-53.211305120582544 -43.5, -11.651354748001026 -43.5, 94.77125549316406 -43.5" stroke="#9370DB" stroke-width="1.3" fill="none" stroke-dasharray="0 0" style=""></path></g><g class="divider" style=""><path d="M-94.77125549316406 21.5 C-23.634440889464884 21.5, 47.502373714234295 21.5, 94.77125549316406 21.5 M-94.77125549316406 21.5 C-39.214261256063246 21.5, 16.34273298103757 21.5, 94.77125549316406 21.5" stroke="#9370DB" stroke-width="1.3" fill="none" stroke-dasharray="0 0" style=""></path></g></g></g></g></g></svg>