<svg id="container" width="696.9820556640625" xmlns="http://www.w3.org/2000/svg" class="classDiagram" height="409" viewBox="0 0 696.9820556640625 409" role="graphics-document document" aria-roledescription="class"><style>#container{font-family:"trebuchet ms",verdana,arial,sans-serif;font-size:16px;fill:#333;}@keyframes edge-animation-frame{from{stroke-dashoffset:0;}}@keyframes dash{to{stroke-dashoffset:0;}}#container .edge-animation-slow{stroke-dasharray:9,5!important;stroke-dashoffset:900;animation:dash 50s linear infinite;stroke-linecap:round;}#container .edge-animation-fast{stroke-dasharray:9,5!important;stroke-dashoffset:900;animation:dash 20s linear infinite;stroke-linecap:round;}#container .error-icon{fill:#552222;}#container .error-text{fill:#552222;stroke:#552222;}#container .edge-thickness-normal{stroke-width:1px;}#container .edge-thickness-thick{stroke-width:3.5px;}#container .edge-pattern-solid{stroke-dasharray:0;}#container .edge-thickness-invisible{stroke-width:0;fill:none;}#container .edge-pattern-dashed{stroke-dasharray:3;}#container .edge-pattern-dotted{stroke-dasharray:2;}#container .marker{fill:#333333;stroke:#333333;}#container .marker.cross{stroke:#333333;}#container svg{font-family:"trebuchet ms",verdana,arial,sans-serif;font-size:16px;}#container p{margin:0;}#container g.classGroup text{fill:#9370DB;stroke:none;font-family:"trebuchet ms",verdana,arial,sans-serif;font-size:10px;}#container g.classGroup text .title{font-weight:bolder;}#container .nodeLabel,#container .edgeLabel{color:#131300;}#container .edgeLabel .label rect{fill:#ECECFF;}#container .label text{fill:#131300;}#container .labelBkg{background:#ECECFF;}#container .edgeLabel .label span{background:#ECECFF;}#container .classTitle{font-weight:bolder;}#container .node rect,#container .node circle,#container .node ellipse,#container .node polygon,#container .node path{fill:#ECECFF;stroke:#9370DB;stroke-width:1px;}#container .divider{stroke:#9370DB;stroke-width:1;}#container g.clickable{cursor:pointer;}#container g.classGroup rect{fill:#ECECFF;stroke:#9370DB;}#container g.classGroup line{stroke:#9370DB;stroke-width:1;}#container .classLabel .box{stroke:none;stroke-width:0;fill:#ECECFF;opacity:0.5;}#container .classLabel .label{fill:#9370DB;font-size:10px;}#container .relation{stroke:#333333;stroke-width:1;fill:none;}#container .dashed-line{stroke-dasharray:3;}#container .dotted-line{stroke-dasharray:1 2;}#container #compositionStart,#container .composition{fill:#333333!important;stroke:#333333!important;stroke-width:1;}#container #compositionEnd,#container .composition{fill:#333333!important;stroke:#333333!important;stroke-width:1;}#container #dependencyStart,#container .dependency{fill:#333333!important;stroke:#333333!important;stroke-width:1;}#container #dependencyStart,#container .dependency{fill:#333333!important;stroke:#333333!important;stroke-width:1;}#container #extensionStart,#container .extension{fill:transparent!important;stroke:#333333!important;stroke-width:1;}#container #extensionEnd,#container .extension{fill:transparent!important;stroke:#333333!important;stroke-width:1;}#container #aggregationStart,#container .aggregation{fill:transparent!important;stroke:#333333!important;stroke-width:1;}#container #aggregationEnd,#container .aggregation{fill:transparent!important;stroke:#333333!important;stroke-width:1;}#container #lollipopStart,#container .lollipop{fill:#ECECFF!important;stroke:#333333!important;stroke-width:1;}#container #lollipopEnd,#container .lollipop{fill:#ECECFF!important;stroke:#333333!important;stroke-width:1;}#container .edgeTerminals{font-size:11px;line-height:initial;}#container .classTitleText{text-anchor:middle;font-size:18px;fill:#333;}#container .label-icon{display:inline-block;height:1em;overflow:visible;vertical-align:-0.125em;}#container .node .label-icon path{fill:currentColor;stroke:revert;stroke-width:revert;}#container :root{--mermaid-font-family:"trebuchet ms",verdana,arial,sans-serif;}</style><g><defs><marker id="container_class-aggregationStart" class="marker aggregation class" refX="18" refY="7" markerWidth="190" markerHeight="240" orient="auto"><path d="M 18,7 L9,13 L1,7 L9,1 Z"></path></marker></defs><defs><marker id="container_class-aggregationEnd" class="marker aggregation class" refX="1" refY="7" markerWidth="20" markerHeight="28" orient="auto"><path d="M 18,7 L9,13 L1,7 L9,1 Z"></path></marker></defs><defs><marker id="container_class-extensionStart" class="marker extension class" refX="18" refY="7" markerWidth="190" markerHeight="240" orient="auto"><path d="M 1,7 L18,13 V 1 Z"></path></marker></defs><defs><marker id="container_class-extensionEnd" class="marker extension class" refX="1" refY="7" markerWidth="20" markerHeight="28" orient="auto"><path d="M 1,1 V 13 L18,7 Z"></path></marker></defs><defs><marker id="container_class-compositionStart" class="marker composition class" refX="18" refY="7" markerWidth="190" markerHeight="240" orient="auto"><path d="M 18,7 L9,13 L1,7 L9,1 Z"></path></marker></defs><defs><marker id="container_class-compositionEnd" class="marker composition class" refX="1" refY="7" markerWidth="20" markerHeight="28" orient="auto"><path d="M 18,7 L9,13 L1,7 L9,1 Z"></path></marker></defs><defs><marker id="container_class-dependencyStart" class="marker dependency class" refX="6" refY="7" markerWidth="190" markerHeight="240" orient="auto"><path d="M 5,7 L9,13 L1,7 L9,1 Z"></path></marker></defs><defs><marker id="container_class-dependencyEnd" class="marker dependency class" refX="13" refY="7" markerWidth="20" markerHeight="28" orient="auto"><path d="M 18,7 L9,13 L14,7 L9,1 Z"></path></marker></defs><defs><marker id="container_class-lollipopStart" class="marker lollipop class" refX="13" refY="7" markerWidth="190" markerHeight="240" orient="auto"><circle stroke="black" fill="transparent" cx="7" cy="7" r="6"></circle></marker></defs><defs><marker id="container_class-lollipopEnd" class="marker lollipop class" refX="1" refY="7" markerWidth="190" markerHeight="240" orient="auto"><circle stroke="black" fill="transparent" cx="7" cy="7" r="6"></circle></marker></defs><g class="root"><g class="clusters"></g><g class="edgePaths"><path d="M228.756,145.055L207.405,154.712C186.053,164.37,143.35,183.685,121.998,199.342C100.647,215,100.647,227,100.647,233L100.647,239" id="id_Figura_Circulo_1" class="edge-thickness-normal edge-pattern-solid relation" style=";;;" data-edge="true" data-et="edge" data-id="id_Figura_Circulo_1" data-points="W3sieCI6MjQ0LjQ3MzE5MDMwNzYxNzIsInkiOjEzNy45NDU4MTIxNzgyOTAyfSx7IngiOjEwMC42NDY3NTE0MDM4MDg2LCJ5IjoyMDN9LHsieCI6MTAwLjY0Njc1MTQwMzgwODYsInkiOjIzOX1d" marker-start="url(#container_class-extensionStart)"></path><path d="M343.843,195.25L343.843,196.542C343.843,197.833,343.843,200.417,343.843,205.875C343.843,211.333,343.843,219.667,343.843,223.833L343.843,228" id="id_Figura_Rectangulo_2" class="edge-thickness-normal edge-pattern-solid relation" style=";;;" data-edge="true" data-et="edge" data-id="id_Figura_Rectangulo_2" data-points="W3sieCI6MzQzLjg0MjU5Nzk2MTQyNTgsInkiOjE3OH0seyJ4IjozNDMuODQyNTk3OTYxNDI1OCwieSI6MjAzfSx7IngiOjM0My44NDI1OTc5NjE0MjU4LCJ5IjoyMjh9XQ==" marker-start="url(#container_class-extensionStart)"></path><path d="M458.979,144.101L481.097,153.917C503.215,163.734,547.451,183.367,569.569,197.35C591.687,211.333,591.687,219.667,591.687,223.833L591.687,228" id="id_Figura_Triangulo_3" class="edge-thickness-normal edge-pattern-solid relation" style=";;;" data-edge="true" data-et="edge" data-id="id_Figura_Triangulo_3" data-points="W3sieCI6NDQzLjIxMjAwNTYxNTIzNDQsInkiOjEzNy4xMDI4MzIwODA1NTY5NH0seyJ4Ijo1OTEuNjg2ODgyMDE5MDQzLCJ5IjoyMDN9LHsieCI6NTkxLjY4Njg4MjAxOTA0MywieSI6MjI4fV0=" marker-start="url(#container_class-extensionStart)"></path></g><g class="edgeLabels"><g><rect class="background" style="stroke: none"></rect></g><g><rect class="background" style="stroke: none"></rect></g><g><rect class="background" style="stroke: none"></rect></g><g class="edgeLabel"><g class="label" data-id="id_Figura_Circulo_1" transform="translate(0, 0)"><text y="-10.1"><tspan class="text-outer-tspan" x="0" y="-0.1em" dy="1.1em"></tspan></text></g></g><g class="edgeLabel"><g class="label" data-id="id_Figura_Rectangulo_2" transform="translate(0, 0)"><text y="-10.1"><tspan class="text-outer-tspan" x="0" y="-0.1em" dy="1.1em"></tspan></text></g></g><g class="edgeLabel"><g class="label" data-id="id_Figura_Triangulo_3" transform="translate(0, 0)"><text y="-10.1"><tspan class="text-outer-tspan" x="0" y="-0.1em" dy="1.1em"></tspan></text></g></g></g><g class="nodes"><g class="node default" id="classId-Figura-0" transform="translate(343.8425979614258, 93)"><g class="basic label-container"><path d="M-99.3694076538086 -85 L99.3694076538086 -85 L99.3694076538086 85 L-99.3694076538086 85" stroke="none" stroke-width="0" fill="#ECECFF" style=""></path><path d="M-99.3694076538086 -85 C-32.47457114895013 -85, 34.42026535590833 -85, 99.3694076538086 -85 M-99.3694076538086 -85 C-51.43176021584371 -85, -3.4941127778788257 -85, 99.3694076538086 -85 M99.3694076538086 -85 C99.3694076538086 -36.89706723056715, 99.3694076538086 11.205865538865694, 99.3694076538086 85 M99.3694076538086 -85 C99.3694076538086 -41.80649915981015, 99.3694076538086 1.3870016803796972, 99.3694076538086 85 M99.3694076538086 85 C32.16566507904176 85, -35.03807749572508 85, -99.3694076538086 85 M99.3694076538086 85 C33.526305192825845 85, -32.316797268156904 85, -99.3694076538086 85 M-99.3694076538086 85 C-99.3694076538086 34.094290755313956, -99.3694076538086 -16.811418489372087, -99.3694076538086 -85 M-99.3694076538086 85 C-99.3694076538086 31.519637116351085, -99.3694076538086 -21.96072576729783, -99.3694076538086 -85" stroke="#9370DB" stroke-width="1.3" fill="none" stroke-dasharray="0 0" style=""></path></g><g class="annotation-group text" transform="translate(-38.609375, -65)"><g class="label" style="" transform="translate(0,-9.5)"><g><rect class="background" style="stroke: none"></rect><text y="-10.1" style=""><tspan class="text-outer-tspan" x="0" y="-0.1em" dy="1.1em"><tspan font-style="normal" class="text-inner-tspan" font-weight="normal">«abstract»</tspan></tspan></text></g></g></g><g class="label-group text" transform="translate(-22.252044677734375, -46)"><g class="label" style="font-weight: bolder" transform="translate(0,-9.5)"><g><rect class="background" style="stroke: none"></rect><text y="-10.1" style=""><tspan class="text-outer-tspan" x="0" y="-0.1em" dy="1.1em" font-weight=""><tspan font-style="normal" class="text-inner-tspan" font-weight="">Figura</tspan></tspan></text></g></g></g><g class="members-group text" transform="translate(-87.3694076538086, -3)"><g class="label" style="" transform="translate(0,-9.5)"><g><rect class="background" style="stroke: none"></rect><text y="-10.1" style=""><tspan class="text-outer-tspan" x="0" y="-0.1em" dy="1.1em"><tspan font-style="normal" class="text-inner-tspan" font-weight="normal">+String</tspan><tspan font-style="normal" class="text-inner-tspan" font-weight="normal"> color</tspan></tspan></text></g></g></g><g class="methods-group text" transform="translate(-87.3694076538086, 40)"><g class="label" style="" transform="translate(0,-9.5)"><g><rect class="background" style="stroke: none"></rect><text y="-10.1" style=""><tspan class="text-outer-tspan" x="0" y="-0.1em" dy="1.1em"><tspan font-style="normal" class="text-inner-tspan" font-weight="normal">+area()</tspan><tspan font-style="normal" class="text-inner-tspan" font-weight="normal"> :</tspan><tspan font-style="normal" class="text-inner-tspan" font-weight="normal"> float</tspan></tspan></text></g></g><g class="label" style="" transform="translate(0,12.5)"><g><rect class="background" style="stroke: none"></rect><text y="-10.1" style=""><tspan class="text-outer-tspan" x="0" y="-0.1em" dy="1.1em"><tspan font-style="normal" class="text-inner-tspan" font-weight="normal">+perimetro()</tspan><tspan font-style="normal" class="text-inner-tspan" font-weight="normal"> :</tspan><tspan font-style="normal" class="text-inner-tspan" font-weight="normal"> float</tspan></tspan></text></g></g></g><g class="divider" style=""><path d="M-99.3694076538086 -23 C-26.060369298411842 -23, 47.24866905698491 -23, 99.3694076538086 -23 M-99.3694076538086 -23 C-32.97977585796248 -23, 33.409855937883634 -23, 99.3694076538086 -23" stroke="#9370DB" stroke-width="1.3" fill="none" stroke-dasharray="0 0" style=""></path></g><g class="divider" style=""><path d="M-99.3694076538086 20 C-52.25808688598555 20, -5.146766118162503 20, 99.3694076538086 20 M-99.3694076538086 20 C-31.72053740350634 20, 35.92833284679591 20, 99.3694076538086 20" stroke="#9370DB" stroke-width="1.3" fill="none" stroke-dasharray="0 0" style=""></path></g></g><g class="node default" id="classId-Circulo-1" transform="translate(100.6467514038086, 314.5)"><g class="basic label-container"><path d="M-92.6467514038086 -75.5 L92.6467514038086 -75.5 L92.6467514038086 75.5 L-92.6467514038086 75.5" stroke="none" stroke-width="0" fill="#ECECFF" style=""></path><path d="M-92.6467514038086 -75.5 C-31.19200549499508 -75.5, 30.262740413818435 -75.5, 92.6467514038086 -75.5 M-92.6467514038086 -75.5 C-48.66516297025488 -75.5, -4.6835745367011725 -75.5, 92.6467514038086 -75.5 M92.6467514038086 -75.5 C92.6467514038086 -30.081487874820077, 92.6467514038086 15.337024250359846, 92.6467514038086 75.5 M92.6467514038086 -75.5 C92.6467514038086 -32.07119799720831, 92.6467514038086 11.357604005583383, 92.6467514038086 75.5 M92.6467514038086 75.5 C26.476419338488242 75.5, -39.69391272683211 75.5, -92.6467514038086 75.5 M92.6467514038086 75.5 C37.21602049421208 75.5, -18.21471041538443 75.5, -92.6467514038086 75.5 M-92.6467514038086 75.5 C-92.6467514038086 40.091531196608216, -92.6467514038086 4.6830623932164315, -92.6467514038086 -75.5 M-92.6467514038086 75.5 C-92.6467514038086 19.815990670085085, -92.6467514038086 -35.86801865982983, -92.6467514038086 -75.5" stroke="#9370DB" stroke-width="1.3" fill="none" stroke-dasharray="0 0" style=""></path></g><g class="annotation-group text" transform="translate(0, -55.5)"></g><g class="label-group text" transform="translate(-25.1640625, -55.5)"><g class="label" style="font-weight: bolder" transform="translate(0,-9.5)"><g><rect class="background" style="stroke: none"></rect><text y="-10.1" style=""><tspan class="text-outer-tspan" x="0" y="-0.1em" dy="1.1em" font-weight=""><tspan font-style="normal" class="text-inner-tspan" font-weight="">Circulo</tspan></tspan></text></g></g></g><g class="members-group text" transform="translate(-80.6467514038086, -12.5)"><g class="label" style="" transform="translate(0,-9.5)"><g><rect class="background" style="stroke: none"></rect><text y="-10.1" style=""><tspan class="text-outer-tspan" x="0" y="-0.1em" dy="1.1em"><tspan font-style="normal" class="text-inner-tspan" font-weight="normal">+float</tspan><tspan font-style="normal" class="text-inner-tspan" font-weight="normal"> radio</tspan></tspan></text></g></g></g><g class="methods-group text" transform="translate(-80.6467514038086, 30.5)"><g class="label" style="" transform="translate(0,-9.5)"><g><rect class="background" style="stroke: none"></rect><text y="-10.1" style=""><tspan class="text-outer-tspan" x="0" y="-0.1em" dy="1.1em"><tspan font-style="normal" class="text-inner-tspan" font-weight="normal">+area()</tspan><tspan font-style="normal" class="text-inner-tspan" font-weight="normal"> :</tspan><tspan font-style="normal" class="text-inner-tspan" font-weight="normal"> float</tspan></tspan></text></g></g><g class="label" style="" transform="translate(0,12.5)"><g><rect class="background" style="stroke: none"></rect><text y="-10.1" style=""><tspan class="text-outer-tspan" x="0" y="-0.1em" dy="1.1em"><tspan font-style="normal" class="text-inner-tspan" font-weight="normal">+perimetro()</tspan><tspan font-style="normal" class="text-inner-tspan" font-weight="normal"> :</tspan><tspan font-style="normal" class="text-inner-tspan" font-weight="normal"> float</tspan></tspan></text></g></g></g><g class="divider" style=""><path d="M-92.6467514038086 -32.5 C-48.1347955291558 -32.5, -3.622839654503011 -32.5, 92.6467514038086 -32.5 M-92.6467514038086 -32.5 C-23.654090168692406 -32.5, 45.33857106642378 -32.5, 92.6467514038086 -32.5" stroke="#9370DB" stroke-width="1.3" fill="none" stroke-dasharray="0 0" style=""></path></g><g class="divider" style=""><path d="M-92.6467514038086 10.5 C-48.40238935458782 10.5, -4.1580273053670425 10.5, 92.6467514038086 10.5 M-92.6467514038086 10.5 C-49.502669399377005 10.5, -6.358587394945417 10.5, 92.6467514038086 10.5" stroke="#9370DB" stroke-width="1.3" fill="none" stroke-dasharray="0 0" style=""></path></g></g><g class="node default" id="classId-Rectangulo-2" transform="translate(343.8425979614258, 314.5)"><g class="basic label-container"><path d="M-100.5490951538086 -86.5 L100.5490951538086 -86.5 L100.5490951538086 86.5 L-100.5490951538086 86.5" stroke="none" stroke-width="0" fill="#ECECFF" style=""></path><path d="M-100.5490951538086 -86.5 C-45.37801900889 -86.5, 9.793057136028594 -86.5, 100.5490951538086 -86.5 M-100.5490951538086 -86.5 C-54.60276330947953 -86.5, -8.656431465150462 -86.5, 100.5490951538086 -86.5 M100.5490951538086 -86.5 C100.5490951538086 -38.723437254189115, 100.5490951538086 9.05312549162177, 100.5490951538086 86.5 M100.5490951538086 -86.5 C100.5490951538086 -20.031705207194534, 100.5490951538086 46.43658958561093, 100.5490951538086 86.5 M100.5490951538086 86.5 C51.57318423557095 86.5, 2.597273317333304 86.5, -100.5490951538086 86.5 M100.5490951538086 86.5 C57.014699197304395 86.5, 13.480303240800197 86.5, -100.5490951538086 86.5 M-100.5490951538086 86.5 C-100.5490951538086 33.86829429679392, -100.5490951538086 -18.76341140641216, -100.5490951538086 -86.5 M-100.5490951538086 86.5 C-100.5490951538086 45.43690711175778, -100.5490951538086 4.373814223515566, -100.5490951538086 -86.5" stroke="#9370DB" stroke-width="1.3" fill="none" stroke-dasharray="0 0" style=""></path></g><g class="annotation-group text" transform="translate(0, -66.5)"></g><g class="label-group text" transform="translate(-40.96875, -66.5)"><g class="label" style="font-weight: bolder" transform="translate(0,-9.5)"><g><rect class="background" style="stroke: none"></rect><text y="-10.1" style=""><tspan class="text-outer-tspan" x="0" y="-0.1em" dy="1.1em" font-weight=""><tspan font-style="normal" class="text-inner-tspan" font-weight="">Rectangulo</tspan></tspan></text></g></g></g><g class="members-group text" transform="translate(-88.5490951538086, -23.5)"><g class="label" style="" transform="translate(0,-9.5)"><g><rect class="background" style="stroke: none"></rect><text y="-10.1" style=""><tspan class="text-outer-tspan" x="0" y="-0.1em" dy="1.1em"><tspan font-style="normal" class="text-inner-tspan" font-weight="normal">+float</tspan><tspan font-style="normal" class="text-inner-tspan" font-weight="normal"> ancho</tspan></tspan></text></g></g><g class="label" style="" transform="translate(0,12.5)"><g><rect class="background" style="stroke: none"></rect><text y="-10.1" style=""><tspan class="text-outer-tspan" x="0" y="-0.1em" dy="1.1em"><tspan font-style="normal" class="text-inner-tspan" font-weight="normal">+float</tspan><tspan font-style="normal" class="text-inner-tspan" font-weight="normal"> alto</tspan></tspan></text></g></g></g><g class="methods-group text" transform="translate(-88.5490951538086, 41.5)"><g class="label" style="" transform="translate(0,-9.5)"><g><rect class="background" style="stroke: none"></rect><text y="-10.1" style=""><tspan class="text-outer-tspan" x="0" y="-0.1em" dy="1.1em"><tspan font-style="normal" class="text-inner-tspan" font-weight="normal">+area()</tspan><tspan font-style="normal" class="text-inner-tspan" font-weight="normal"> :</tspan><tspan font-style="normal" class="text-inner-tspan" font-weight="normal"> float</tspan></tspan></text></g></g><g class="label" style="" transform="translate(0,12.5)"><g><rect class="background" style="stroke: none"></rect><text y="-10.1" style=""><tspan class="text-outer-tspan" x="0" y="-0.1em" dy="1.1em"><tspan font-style="normal" class="text-inner-tspan" font-weight="normal">+perimetro()</tspan><tspan font-style="normal" class="text-inner-tspan" font-weight="normal"> :</tspan><tspan font-style="normal" class="text-inner-tspan" font-weight="normal"> float</tspan></tspan></text></g></g></g><g class="divider" style=""><path d="M-100.5490951538086 -43.5 C-30.758720014558477 -43.5, 39.03165512469164 -43.5, 100.5490951538086 -43.5 M-100.5490951538086 -43.5 C-42.48796799939639 -43.5, 15.573159155015816 -43.5, 100.5490951538086 -43.5" stroke="#9370DB" stroke-width="1.3" fill="none" stroke-dasharray="0 0" style=""></path></g><g class="divider" style=""><path d="M-100.5490951538086 21.5 C-60.09005617323319 21.5, -19.63101719265778 21.5, 100.5490951538086 21.5 M-100.5490951538086 21.5 C-34.53145143388166 21.5, 31.48619228604528 21.5, 100.5490951538086 21.5" stroke="#9370DB" stroke-width="1.3" fill="none" stroke-dasharray="0 0" style=""></path></g></g><g class="node default" id="classId-Triangulo-3" transform="translate(591.686882019043, 314.5)"><g class="basic label-container"><path d="M-97.2951889038086 -86.5 L97.2951889038086 -86.5 L97.2951889038086 86.5 L-97.2951889038086 86.5" stroke="none" stroke-width="0" fill="#ECECFF" style=""></path><path d="M-97.2951889038086 -86.5 C-41.69260188159599 -86.5, 13.909985140616612 -86.5, 97.2951889038086 -86.5 M-97.2951889038086 -86.5 C-42.494144393045424 -86.5, 12.306900117717746 -86.5, 97.2951889038086 -86.5 M97.2951889038086 -86.5 C97.2951889038086 -26.433837862181598, 97.2951889038086 33.632324275636805, 97.2951889038086 86.5 M97.2951889038086 -86.5 C97.2951889038086 -30.597700956601706, 97.2951889038086 25.304598086796588, 97.2951889038086 86.5 M97.2951889038086 86.5 C23.762294365463518 86.5, -49.77060017288156 86.5, -97.2951889038086 86.5 M97.2951889038086 86.5 C24.919514307749736 86.5, -47.45616028830912 86.5, -97.2951889038086 86.5 M-97.2951889038086 86.5 C-97.2951889038086 48.12799234841208, -97.2951889038086 9.755984696824157, -97.2951889038086 -86.5 M-97.2951889038086 86.5 C-97.2951889038086 37.99916449208477, -97.2951889038086 -10.501671015830453, -97.2951889038086 -86.5" stroke="#9370DB" stroke-width="1.3" fill="none" stroke-dasharray="0 0" style=""></path></g><g class="annotation-group text" transform="translate(0, -66.5)"></g><g class="label-group text" transform="translate(-34.4609375, -66.5)"><g class="label" style="font-weight: bolder" transform="translate(0,-9.5)"><g><rect class="background" style="stroke: none"></rect><text y="-10.1" style=""><tspan class="text-outer-tspan" x="0" y="-0.1em" dy="1.1em" font-weight=""><tspan font-style="normal" class="text-inner-tspan" font-weight="">Triangulo</tspan></tspan></text></g></g></g><g class="members-group text" transform="translate(-85.2951889038086, -23.5)"><g class="label" style="" transform="translate(0,-9.5)"><g><rect class="background" style="stroke: none"></rect><text y="-10.1" style=""><tspan class="text-outer-tspan" x="0" y="-0.1em" dy="1.1em"><tspan font-style="normal" class="text-inner-tspan" font-weight="normal">+float</tspan><tspan font-style="normal" class="text-inner-tspan" font-weight="normal"> base</tspan></tspan></text></g></g><g class="label" style="" transform="translate(0,12.5)"><g><rect class="background" style="stroke: none"></rect><text y="-10.1" style=""><tspan class="text-outer-tspan" x="0" y="-0.1em" dy="1.1em"><tspan font-style="normal" class="text-inner-tspan" font-weight="normal">+float</tspan><tspan font-style="normal" class="text-inner-tspan" font-weight="normal"> altura</tspan></tspan></text></g></g></g><g class="methods-group text" transform="translate(-85.2951889038086, 41.5)"><g class="label" style="" transform="translate(0,-9.5)"><g><rect class="background" style="stroke: none"></rect><text y="-10.1" style=""><tspan class="text-outer-tspan" x="0" y="-0.1em" dy="1.1em"><tspan font-style="normal" class="text-inner-tspan" font-weight="normal">+area()</tspan><tspan font-style="normal" class="text-inner-tspan" font-weight="normal"> :</tspan><tspan font-style="normal" class="text-inner-tspan" font-weight="normal"> float</tspan></tspan></text></g></g><g class="label" style="" transform="translate(0,12.5)"><g><rect class="background" style="stroke: none"></rect><text y="-10.1" style=""><tspan class="text-outer-tspan" x="0" y="-0.1em" dy="1.1em"><tspan font-style="normal" class="text-inner-tspan" font-weight="normal">+perimetro()</tspan><tspan font-style="normal" class="text-inner-tspan" font-weight="normal"> :</tspan><tspan font-style="normal" class="text-inner-tspan" font-weight="normal"> float</tspan></tspan></text></g></g></g><g class="divider" style=""><path d="M-97.2951889038086 -43.5 C-55.23215771929596 -43.5, -13.16912653478333 -43.5, 97.2951889038086 -43.5 M-97.2951889038086 -43.5 C-21.677124853744374 -43.5, 53.940939196319846 -43.5, 97.2951889038086 -43.5" stroke="#9370DB" stroke-width="1.3" fill="none" stroke-dasharray="0 0" style=""></path></g><g class="divider" style=""><path d="M-97.2951889038086 21.5 C-54.917601363848306 21.5, -12.540013823888017 21.5, 97.2951889038086 21.5 M-97.2951889038086 21.5 C-28.373437720849978 21.5, 40.54831346210864 21.5, 97.2951889038086 21.5" stroke="#9370DB" stroke-width="1.3" fill="none" stroke-dasharray="0 0" style=""></path></g></g></g></g></g></svg>