<svg id="container" width="579.1146240234375" xmlns="http://www.w3.org/2000/svg" class="erDiagram" height="675" viewBox="0 0 579.1146240234375 675" role="graphics-document document" aria-roledescription="er"><style>#container{font-family:"trebuchet ms",verdana,arial,sans-serif;font-size:16px;fill:#333;}@keyframes edge-animation-frame{from{stroke-dashoffset:0;}}@keyframes dash{to{stroke-dashoffset:0;}}#container .edge-animation-slow{stroke-dasharray:9,5!important;stroke-dashoffset:900;animation:dash 50s linear infinite;stroke-linecap:round;}#container .edge-animation-fast{stroke-dasharray:9,5!important;stroke-dashoffset:900;animation:dash 20s linear infinite;stroke-linecap:round;}#container .error-icon{fill:#552222;}#container .error-text{fill:#552222;stroke:#552222;}#container .edge-thickness-normal{stroke-width:1px;}#container .edge-thickness-thick{stroke-width:3.5px;}#container .edge-pattern-solid{stroke-dasharray:0;}#container .edge-thickness-invisible{stroke-width:0;fill:none;}#container .edge-pattern-dashed{stroke-dasharray:3;}#container .edge-pattern-dotted{stroke-dasharray:2;}#container .marker{fill:#333333;stroke:#333333;}#container .marker.cross{stroke:#333333;}#container svg{font-family:"trebuchet ms",verdana,arial,sans-serif;font-size:16px;}#container p{margin:0;}#container .entityBox{fill:#ECECFF;stroke:#9370DB;}#container .relationshipLabelBox{fill:hsl(80, 100%, 96.2745098039%);opacity:0.7;background-color:hsl(80, 100%, 96.2745098039%);}#container .relationshipLabelBox rect{opacity:0.5;}#container .labelBkg{background-color:rgba(248.6666666666, 255, 235.9999999999, 0.5);}#container .edgeLabel .label{fill:#9370DB;font-size:14px;}#container .label{font-family:"trebuchet ms",verdana,arial,sans-serif;color:#333;}#container .edge-pattern-dashed{stroke-dasharray:8,8;}#container .node rect,#container .node circle,#container .node ellipse,#container .node polygon{fill:#ECECFF;stroke:#9370DB;stroke-width:1px;}#container .relationshipLine{stroke:#333333;stroke-width:1;fill:none;}#container .marker{fill:none!important;stroke:#333333!important;stroke-width:1;}#container :root{--mermaid-font-family:"trebuchet ms",verdana,arial,sans-serif;}</style><g><defs><marker id="container_er-onlyOneStart" class="marker onlyOne er" refX="0" refY="9" markerWidth="18" markerHeight="18" orient="auto"><path d="M9,0 L9,18 M15,0 L15,18"></path></marker></defs><defs><marker id="container_er-onlyOneEnd" class="marker onlyOne er" refX="18" refY="9" markerWidth="18" markerHeight="18" orient="auto"><path d="M3,0 L3,18 M9,0 L9,18"></path></marker></defs><defs><marker id="container_er-zeroOrOneStart" class="marker zeroOrOne er" refX="0" refY="9" markerWidth="30" markerHeight="18" orient="auto"><circle fill="white" cx="21" cy="9" r="6"></circle><path d="M9,0 L9,18"></path></marker></defs><defs><marker id="container_er-zeroOrOneEnd" class="marker zeroOrOne er" refX="30" refY="9" markerWidth="30" markerHeight="18" orient="auto"><circle fill="white" cx="9" cy="9" r="6"></circle><path d="M21,0 L21,18"></path></marker></defs><defs><marker id="container_er-oneOrMoreStart" class="marker oneOrMore er" refX="18" refY="18" markerWidth="45" markerHeight="36" orient="auto"><path d="M0,18 Q 18,0 36,18 Q 18,36 0,18 M42,9 L42,27"></path></marker></defs><defs><marker id="container_er-oneOrMoreEnd" class="marker oneOrMore er" refX="27" refY="18" markerWidth="45" markerHeight="36" orient="auto"><path d="M3,9 L3,27 M9,18 Q27,0 45,18 Q27,36 9,18"></path></marker></defs><defs><marker id="container_er-zeroOrMoreStart" class="marker zeroOrMore er" refX="18" refY="18" markerWidth="57" markerHeight="36" orient="auto"><circle fill="white" cx="48" cy="18" r="6"></circle><path d="M0,18 Q18,0 36,18 Q18,36 0,18"></path></marker></defs><defs><marker id="container_er-zeroOrMoreEnd" class="marker zeroOrMore er" refX="39" refY="18" markerWidth="57" markerHeight="36" orient="auto"><circle fill="white" cx="9" cy="18" r="6"></circle><path d="M21,18 Q39,0 57,18 Q39,36 21,18"></path></marker></defs><g class="root"><g class="clusters"></g><g class="edgePaths"><path d="M104.484,413L104.484,421.583C104.484,430.167,104.484,447.333,115.772,464.5C127.06,481.667,149.636,498.833,160.924,507.417L172.212,516" id="id_entity-ESTUDIANTE-0_entity-MATRICULA-3_0" class="edge-thickness-normal edge-pattern-solid relationshipLine" style="undefined;;;undefined" data-edge="true" data-et="edge" data-id="id_entity-ESTUDIANTE-0_entity-MATRICULA-3_0" data-points="W3sieCI6MTA0LjQ4MzczNDEzMDg1OTM4LCJ5Ijo0MTN9LHsieCI6MTA0LjQ4MzczNDEzMDg1OTM4LCJ5Ijo0NjQuNX0seyJ4IjoxNzIuMjExODY2ODQ0MzU3NDcsInkiOjUxNn1d" marker-start="url(#container_er-onlyOneStart)" marker-end="url(#container_er-zeroOrMoreEnd)"></path><path d="M438.522,413L438.522,421.583C438.522,430.167,438.522,447.333,427.233,464.5C415.945,481.667,393.369,498.833,382.081,507.417L370.793,516" id="id_entity-CURSO-1_entity-MATRICULA-3_1" class="edge-thickness-normal edge-pattern-solid relationshipLine" style="undefined;;;undefined" data-edge="true" data-et="edge" data-id="id_entity-CURSO-1_entity-MATRICULA-3_1" data-points="W3sieCI6NDM4LjUyMTUxNDg5MjU3ODEsInkiOjQxM30seyJ4Ijo0MzguNTIxNTE0ODkyNTc4MSwieSI6NDY0LjV9LHsieCI6MzcwLjc5MzM4MjE3OTA4LCJ5Ijo1MTZ9XQ==" marker-start="url(#container_er-onlyOneStart)" marker-end="url(#container_er-zeroOrMoreEnd)"></path><path d="M438.522,159L438.522,167.583C438.522,176.167,438.522,193.333,438.522,210.5C438.522,227.667,438.522,244.833,438.522,253.417L438.522,262" id="id_entity-PROFESOR-2_entity-CURSO-1_2" class="edge-thickness-normal edge-pattern-solid relationshipLine" style="undefined;;;undefined" data-edge="true" data-et="edge" data-id="id_entity-PROFESOR-2_entity-CURSO-1_2" data-points="W3sieCI6NDM4LjUyMTUxNDg5MjU3ODEsInkiOjE1OX0seyJ4Ijo0MzguNTIxNTE0ODkyNTc4MSwieSI6MjEwLjV9LHsieCI6NDM4LjUyMTUxNDg5MjU3ODEsInkiOjI2Mn1d" marker-start="url(#container_er-onlyOneStart)" marker-end="url(#container_er-zeroOrMoreEnd)"></path></g><g class="edgeLabels"><g class="edgeLabel" transform="translate(104.48373413085938, 464.5)"><g class="label" data-id="id_entity-ESTUDIANTE-0_entity-MATRICULA-3_0" transform="translate(-46.71875, -11.5)"><g><rect class="background" style="" x="-2" y="-1" width="93.4375" height="23"></rect><text y="-10.1" style=""><tspan class="text-outer-tspan" x="0" y="-0.1em" dy="1.1em"><tspan font-style="normal" class="text-inner-tspan" font-weight="normal">se</tspan><tspan font-style="normal" class="text-inner-tspan" font-weight="normal"> matricula</tspan></tspan></text></g></g></g><g class="edgeLabel" transform="translate(438.5215148925781, 464.5)"><g class="label" data-id="id_entity-CURSO-1_entity-MATRICULA-3_1" transform="translate(-20.5546875, -11.5)"><g><rect class="background" style="" x="-2" y="-1" width="41.109375" height="23"></rect><text y="-10.1" style=""><tspan class="text-outer-tspan" x="0" y="-0.1em" dy="1.1em"><tspan font-style="normal" class="text-inner-tspan" font-weight="normal">tiene</tspan></tspan></text></g></g></g><g class="edgeLabel" transform="translate(438.5215148925781, 210.5)"><g class="label" data-id="id_entity-PROFESOR-2_entity-CURSO-1_2" transform="translate(-30.359375, -11.5)"><g><rect class="background" style="" x="-2" y="-1" width="60.71875" height="23"></rect><text y="-10.1" style=""><tspan class="text-outer-tspan" x="0" y="-0.1em" dy="1.1em"><tspan font-style="normal" class="text-inner-tspan" font-weight="normal">imparte</tspan></tspan></text></g></g></g></g><g class="nodes"><g class="node default" id="entity-ESTUDIANTE-0" transform="translate(104.48373413085938, 337.5)"><g style=""><path d="M-96.48373413085938 -75.5 L96.48373413085938 -75.5 L96.48373413085938 75.5 L-96.48373413085938 75.5" stroke="none" stroke-width="0" fill="#ECECFF"></path><path d="M-96.48373413085938 -75.5 C-25.697143919397632 -75.5, 45.08944629206411 -75.5, 96.48373413085938 -75.5 M-96.48373413085938 -75.5 C-21.374437127989893 -75.5, 53.73485987487959 -75.5, 96.48373413085938 -75.5 M96.48373413085938 -75.5 C96.48373413085938 -15.976905533199371, 96.48373413085938 43.54618893360126, 96.48373413085938 75.5 M96.48373413085938 -75.5 C96.48373413085938 -32.86726443579738, 96.48373413085938 9.765471128405238, 96.48373413085938 75.5 M96.48373413085938 75.5 C55.05120031159727 75.5, 13.618666492335166 75.5, -96.48373413085938 75.5 M96.48373413085938 75.5 C26.569450434165176 75.5, -43.34483326252902 75.5, -96.48373413085938 75.5 M-96.48373413085938 75.5 C-96.48373413085938 29.272917629518055, -96.48373413085938 -16.95416474096389, -96.48373413085938 -75.5 M-96.48373413085938 75.5 C-96.48373413085938 31.504675208821403, -96.48373413085938 -12.490649582357193, -96.48373413085938 -75.5" stroke="#9370DB" stroke-width="1.3" fill="none" stroke-dasharray="0 0"></path></g><g style="" class="row-rect-odd"><path d="M-96.48373413085938 -37.75 L96.48373413085938 -37.75 L96.48373413085938 0 L-96.48373413085938 0" stroke="none" stroke-width="0" fill="hsl(240, 100%, 100%)"></path><path d="M-96.48373413085938 -37.75 C-55.359710643984975 -37.75, -14.235687157110576 -37.75, 96.48373413085938 -37.75 M-96.48373413085938 -37.75 C-19.797922772305256 -37.75, 56.88788858624886 -37.75, 96.48373413085938 -37.75 M96.48373413085938 -37.75 C96.48373413085938 -26.46598798537144, 96.48373413085938 -15.181975970742887, 96.48373413085938 0 M96.48373413085938 -37.75 C96.48373413085938 -29.31346847459733, 96.48373413085938 -20.87693694919466, 96.48373413085938 0 M96.48373413085938 0 C23.56919674487645 0, -49.345340641106475 0, -96.48373413085938 0 M96.48373413085938 0 C44.29516532327733 0, -7.893403484304713 0, -96.48373413085938 0 M-96.48373413085938 0 C-96.48373413085938 -14.079121441396765, -96.48373413085938 -28.15824288279353, -96.48373413085938 -37.75 M-96.48373413085938 0 C-96.48373413085938 -9.362090848243831, -96.48373413085938 -18.724181696487662, -96.48373413085938 -37.75" stroke="#9370DB" stroke-width="1.3" fill="none" stroke-dasharray="0 0"></path></g><g style="" class="row-rect-even"><path d="M-96.48373413085938 0 L96.48373413085938 0 L96.48373413085938 37.75 L-96.48373413085938 37.75" stroke="none" stroke-width="0" fill="hsl(240, 100%, 97.2745098039%)"></path><path d="M-96.48373413085938 0 C-45.41524350682865 0, 5.653247117202071 0, 96.48373413085938 0 M-96.48373413085938 0 C-21.94115202396341 0, 52.60143008293255 0, 96.48373413085938 0 M96.48373413085938 0 C96.48373413085938 11.345935389825044, 96.48373413085938 22.69187077965009, 96.48373413085938 37.75 M96.48373413085938 0 C96.48373413085938 8.307480964795126, 96.48373413085938 16.61496192959025, 96.48373413085938 37.75 M96.48373413085938 37.75 C39.024137022277216 37.75, -18.435460086304943 37.75, -96.48373413085938 37.75 M96.48373413085938 37.75 C21.55392730216539 37.75, -53.37587952652859 37.75, -96.48373413085938 37.75 M-96.48373413085938 37.75 C-96.48373413085938 28.042373190476905, -96.48373413085938 18.33474638095381, -96.48373413085938 0 M-96.48373413085938 37.75 C-96.48373413085938 25.191242573138474, -96.48373413085938 12.632485146276945, -96.48373413085938 0" stroke="#9370DB" stroke-width="1.3" fill="none" stroke-dasharray="0 0"></path></g><g style="" class="row-rect-odd"><path d="M-96.48373413085938 37.75 L96.48373413085938 37.75 L96.48373413085938 75.5 L-96.48373413085938 75.5" stroke="none" stroke-width="0" fill="hsl(240, 100%, 100%)"></path><path d="M-96.48373413085938 37.75 C-48.956664703356786 37.75, -1.4295952758541972 37.75, 96.48373413085938 37.75 M-96.48373413085938 37.75 C-37.36127724575635 37.75, 21.76117963934668 37.75, 96.48373413085938 37.75 M96.48373413085938 37.75 C96.48373413085938 51.1439533691084, 96.48373413085938 64.5379067382168, 96.48373413085938 75.5 M96.48373413085938 37.75 C96.48373413085938 51.40109524669009, 96.48373413085938 65.05219049338018, 96.48373413085938 75.5 M96.48373413085938 75.5 C36.09070532049632 75.5, -24.302323489866737 75.5, -96.48373413085938 75.5 M96.48373413085938 75.5 C25.063893647212012 75.5, -46.35594683643535 75.5, -96.48373413085938 75.5 M-96.48373413085938 75.5 C-96.48373413085938 62.84384858578515, -96.48373413085938 50.1876971715703, -96.48373413085938 37.75 M-96.48373413085938 75.5 C-96.48373413085938 67.40758364983476, -96.48373413085938 59.315167299669525, -96.48373413085938 37.75" stroke="#9370DB" stroke-width="1.3" fill="none" stroke-dasharray="0 0"></path></g><g class="label name" transform="translate(-43.796875, -66.125)" style=""><g><rect class="background" style="stroke: none"></rect></g><text y="-10.1" style=""><tspan class="text-outer-tspan" x="0" y="-0.1em" dy="1.1em"><tspan font-style="normal" class="text-inner-tspan" font-weight="normal">ESTUDIANTE</tspan></tspan></text></g><g class="label attribute-type" transform="translate(-83.98373413085938, -28.375)" style=""><g><rect class="background" style="stroke: none"></rect></g><text y="-10.1" style=""><tspan class="text-outer-tspan" x="0" y="-0.1em" dy="1.1em"><tspan font-style="normal" class="text-inner-tspan" font-weight="normal">int</tspan></tspan></text></g><g class="label attribute-name" transform="translate(-16.671661376953125, -28.375)" style=""><g><rect class="background" style="stroke: none"></rect></g><text y="-10.1" style=""><tspan class="text-outer-tspan" x="0" y="-0.1em" dy="1.1em"><tspan font-style="normal" class="text-inner-tspan" font-weight="normal">id</tspan></tspan></text></g><g class="label attribute-keys" transform="translate(64.68771362304688, -28.375)" style=""><g><rect class="background" style="stroke: none"></rect></g><text y="-10.1" style=""><tspan class="text-outer-tspan" x="0" y="-0.1em" dy="1.1em"><tspan font-style="normal" class="text-inner-tspan" font-weight="normal">PK</tspan></tspan></text></g><g class="label attribute-comment" transform="translate(108.98373413085938, -28.375)" style=""><g><rect class="background" style="stroke: none"></rect></g><text y="-10.1" style=""><tspan class="text-outer-tspan" x="0" y="-0.1em" dy="1.1em"></tspan></text></g><g class="label attribute-type" transform="translate(-83.98373413085938, 9.375)" style=""><g><rect class="background" style="stroke: none"></rect></g><text y="-10.1" style=""><tspan class="text-outer-tspan" x="0" y="-0.1em" dy="1.1em"><tspan font-style="normal" class="text-inner-tspan" font-weight="normal">string</tspan></tspan></text></g><g class="label attribute-name" transform="translate(-16.671661376953125, 9.375)" style=""><g><rect class="background" style="stroke: none"></rect></g><text y="-10.1" style=""><tspan class="text-outer-tspan" x="0" y="-0.1em" dy="1.1em"><tspan font-style="normal" class="text-inner-tspan" font-weight="normal">nombre</tspan></tspan></text></g><g class="label attribute-keys" transform="translate(64.68771362304688, 9.375)" style=""><g><rect class="background" style="stroke: none"></rect></g><text y="-10.1" style=""><tspan class="text-outer-tspan" x="0" y="-0.1em" dy="1.1em"></tspan></text></g><g class="label attribute-comment" transform="translate(108.98373413085938, 9.375)" style=""><g><rect class="background" style="stroke: none"></rect></g><text y="-10.1" style=""><tspan class="text-outer-tspan" x="0" y="-0.1em" dy="1.1em"></tspan></text></g><g class="label attribute-type" transform="translate(-83.98373413085938, 47.125)" style=""><g><rect class="background" style="stroke: none"></rect></g><text y="-10.1" style=""><tspan class="text-outer-tspan" x="0" y="-0.1em" dy="1.1em"><tspan font-style="normal" class="text-inner-tspan" font-weight="normal">string</tspan></tspan></text></g><g class="label attribute-name" transform="translate(-16.671661376953125, 47.125)" style=""><g><rect class="background" style="stroke: none"></rect></g><text y="-10.1" style=""><tspan class="text-outer-tspan" x="0" y="-0.1em" dy="1.1em"><tspan font-style="normal" class="text-inner-tspan" font-weight="normal">email</tspan></tspan></text></g><g class="label attribute-keys" transform="translate(64.68771362304688, 47.125)" style=""><g><rect class="background" style="stroke: none"></rect></g><text y="-10.1" style=""><tspan class="text-outer-tspan" x="0" y="-0.1em" dy="1.1em"></tspan></text></g><g class="label attribute-comment" transform="translate(108.98373413085938, 47.125)" style=""><g><rect class="background" style="stroke: none"></rect></g><text y="-10.1" style=""><tspan class="text-outer-tspan" x="0" y="-0.1em" dy="1.1em"></tspan></text></g><g class="divider"><path d="M-96.48373413085938 -37.75 C-22.972472333775812 -37.75, 50.53878946330775 -37.75, 96.48373413085938 -37.75 M-96.48373413085938 -37.75 C-36.88355085360863 -37.75, 22.71663242364211 -37.75, 96.48373413085938 -37.75" stroke="#9370DB" stroke-width="1.3" fill="none" stroke-dasharray="0 0"></path></g><g class="divider"><path d="M-29.171661376953125 -37.75 C-29.171661376953125 -0.8056979777979905, -29.171661376953125 36.13860404440402, -29.171661376953125 75.5 M-29.171661376953125 -37.75 C-29.171661376953125 4.227554462207358, -29.171661376953125 46.205108924414716, -29.171661376953125 75.5" stroke="#9370DB" stroke-width="1.3" fill="none" stroke-dasharray="0 0"></path></g><g class="divider"><path d="M52.187713623046875 -37.75 C52.187713623046875 -9.733280099058117, 52.187713623046875 18.283439801883766, 52.187713623046875 75.5 M52.187713623046875 -37.75 C52.187713623046875 -12.843488828157916, 52.187713623046875 12.063022343684167, 52.187713623046875 75.5" stroke="#9370DB" stroke-width="1.3" fill="none" stroke-dasharray="0 0"></path></g><g class="divider"><path d="M-96.48373413085938 -37.75 C-51.49532091175562 -37.75, -6.506907692651865 -37.75, 96.48373413085938 -37.75 M-96.48373413085938 -37.75 C-26.972837389455947 -37.75, 42.53805935194748 -37.75, 96.48373413085938 -37.75" stroke="#9370DB" stroke-width="1.3" fill="none" stroke-dasharray="0 0"></path></g></g><g class="node default" id="entity-CURSO-1" transform="translate(438.5215148925781, 337.5)"><g style=""><path d="M-97.55404663085938 -75.5 L97.55404663085938 -75.5 L97.55404663085938 75.5 L-97.55404663085938 75.5" stroke="none" stroke-width="0" fill="#ECECFF"></path><path d="M-97.55404663085938 -75.5 C-51.632545942769006 -75.5, -5.711045254678638 -75.5, 97.55404663085938 -75.5 M-97.55404663085938 -75.5 C-56.269557053442085 -75.5, -14.985067476024795 -75.5, 97.55404663085938 -75.5 M97.55404663085938 -75.5 C97.55404663085938 -29.717098142815665, 97.55404663085938 16.06580371436867, 97.55404663085938 75.5 M97.55404663085938 -75.5 C97.55404663085938 -40.49553961975394, 97.55404663085938 -5.491079239507883, 97.55404663085938 75.5 M97.55404663085938 75.5 C30.70368860608042 75.5, -36.146669418698536 75.5, -97.55404663085938 75.5 M97.55404663085938 75.5 C30.712892449394502 75.5, -36.12826173207037 75.5, -97.55404663085938 75.5 M-97.55404663085938 75.5 C-97.55404663085938 42.82561393853023, -97.55404663085938 10.151227877060464, -97.55404663085938 -75.5 M-97.55404663085938 75.5 C-97.55404663085938 30.012587432538048, -97.55404663085938 -15.474825134923904, -97.55404663085938 -75.5" stroke="#9370DB" stroke-width="1.3" fill="none" stroke-dasharray="0 0"></path></g><g style="" class="row-rect-odd"><path d="M-97.55404663085938 -37.75 L97.55404663085938 -37.75 L97.55404663085938 0 L-97.55404663085938 0" stroke="none" stroke-width="0" fill="hsl(240, 100%, 100%)"></path><path d="M-97.55404663085938 -37.75 C-37.14156956959367 -37.75, 23.270907491672034 -37.75, 97.55404663085938 -37.75 M-97.55404663085938 -37.75 C-50.35659226881338 -37.75, -3.159137906767384 -37.75, 97.55404663085938 -37.75 M97.55404663085938 -37.75 C97.55404663085938 -25.19322457401833, 97.55404663085938 -12.636449148036665, 97.55404663085938 0 M97.55404663085938 -37.75 C97.55404663085938 -29.85553303282437, 97.55404663085938 -21.961066065648737, 97.55404663085938 0 M97.55404663085938 0 C21.481630297254213 0, -54.59078603635095 0, -97.55404663085938 0 M97.55404663085938 0 C33.39347614523223 0, -30.76709434039492 0, -97.55404663085938 0 M-97.55404663085938 0 C-97.55404663085938 -12.948181150459014, -97.55404663085938 -25.896362300918028, -97.55404663085938 -37.75 M-97.55404663085938 0 C-97.55404663085938 -10.11529973063668, -97.55404663085938 -20.23059946127336, -97.55404663085938 -37.75" stroke="#9370DB" stroke-width="1.3" fill="none" stroke-dasharray="0 0"></path></g><g style="" class="row-rect-even"><path d="M-97.55404663085938 0 L97.55404663085938 0 L97.55404663085938 37.75 L-97.55404663085938 37.75" stroke="none" stroke-width="0" fill="hsl(240, 100%, 97.2745098039%)"></path><path d="M-97.55404663085938 0 C-46.62164464414435 0, 4.310757342570682 0, 97.55404663085938 0 M-97.55404663085938 0 C-54.28968760592961 0, -11.02532858099984 0, 97.55404663085938 0 M97.55404663085938 0 C97.55404663085938 8.49377920028351, 97.55404663085938 16.98755840056702, 97.55404663085938 37.75 M97.55404663085938 0 C97.55404663085938 13.580762385361368, 97.55404663085938 27.161524770722735, 97.55404663085938 37.75 M97.55404663085938 37.75 C24.569685693277776 37.75, -48.41467524430382 37.75, -97.55404663085938 37.75 M97.55404663085938 37.75 C31.601441154811297 37.75, -34.35116432123678 37.75, -97.55404663085938 37.75 M-97.55404663085938 37.75 C-97.55404663085938 28.539747510108633, -97.55404663085938 19.329495020217262, -97.55404663085938 0 M-97.55404663085938 37.75 C-97.55404663085938 25.779098447895542, -97.55404663085938 13.808196895791088, -97.55404663085938 0" stroke="#9370DB" stroke-width="1.3" fill="none" stroke-dasharray="0 0"></path></g><g style="" class="row-rect-odd"><path d="M-97.55404663085938 37.75 L97.55404663085938 37.75 L97.55404663085938 75.5 L-97.55404663085938 75.5" stroke="none" stroke-width="0" fill="hsl(240, 100%, 100%)"></path><path d="M-97.55404663085938 37.75 C-44.282545326822714 37.75, 8.988955977213948 37.75, 97.55404663085938 37.75 M-97.55404663085938 37.75 C-42.245442030345046 37.75, 13.063162570169283 37.75, 97.55404663085938 37.75 M97.55404663085938 37.75 C97.55404663085938 47.825740790210844, 97.55404663085938 57.90148158042168, 97.55404663085938 75.5 M97.55404663085938 37.75 C97.55404663085938 47.92335032949639, 97.55404663085938 58.09670065899277, 97.55404663085938 75.5 M97.55404663085938 75.5 C33.36714608567249 75.5, -30.8197544595144 75.5, -97.55404663085938 75.5 M97.55404663085938 75.5 C53.642937809877886 75.5, 9.731828988896396 75.5, -97.55404663085938 75.5 M-97.55404663085938 75.5 C-97.55404663085938 64.75055223409775, -97.55404663085938 54.0011044681955, -97.55404663085938 37.75 M-97.55404663085938 75.5 C-97.55404663085938 67.43835940241829, -97.55404663085938 59.376718804836585, -97.55404663085938 37.75" stroke="#9370DB" stroke-width="1.3" fill="none" stroke-dasharray="0 0"></path></g><g class="label name" transform="translate(-24.3828125, -66.125)" style=""><g><rect class="background" style="stroke: none"></rect></g><text y="-10.1" style=""><tspan class="text-outer-tspan" x="0" y="-0.1em" dy="1.1em"><tspan font-style="normal" class="text-inner-tspan" font-weight="normal">CURSO</tspan></tspan></text></g><g class="label attribute-type" transform="translate(-85.05404663085938, -28.375)" style=""><g><rect class="background" style="stroke: none"></rect></g><text y="-10.1" style=""><tspan class="text-outer-tspan" x="0" y="-0.1em" dy="1.1em"><tspan font-style="normal" class="text-inner-tspan" font-weight="normal">int</tspan></tspan></text></g><g class="label attribute-name" transform="translate(-17.741973876953125, -28.375)" style=""><g><rect class="background" style="stroke: none"></rect></g><text y="-10.1" style=""><tspan class="text-outer-tspan" x="0" y="-0.1em" dy="1.1em"><tspan font-style="normal" class="text-inner-tspan" font-weight="normal">id</tspan></tspan></text></g><g class="label attribute-keys" transform="translate(65.75802612304688, -28.375)" style=""><g><rect class="background" style="stroke: none"></rect></g><text y="-10.1" style=""><tspan class="text-outer-tspan" x="0" y="-0.1em" dy="1.1em"><tspan font-style="normal" class="text-inner-tspan" font-weight="normal">PK</tspan></tspan></text></g><g class="label attribute-comment" transform="translate(110.05404663085938, -28.375)" style=""><g><rect class="background" style="stroke: none"></rect></g><text y="-10.1" style=""><tspan class="text-outer-tspan" x="0" y="-0.1em" dy="1.1em"></tspan></text></g><g class="label attribute-type" transform="translate(-85.05404663085938, 9.375)" style=""><g><rect class="background" style="stroke: none"></rect></g><text y="-10.1" style=""><tspan class="text-outer-tspan" x="0" y="-0.1em" dy="1.1em"><tspan font-style="normal" class="text-inner-tspan" font-weight="normal">string</tspan></tspan></text></g><g class="label attribute-name" transform="translate(-17.741973876953125, 9.375)" style=""><g><rect class="background" style="stroke: none"></rect></g><text y="-10.1" style=""><tspan class="text-outer-tspan" x="0" y="-0.1em" dy="1.1em"><tspan font-style="normal" class="text-inner-tspan" font-weight="normal">nombre</tspan></tspan></text></g><g class="label attribute-keys" transform="translate(65.75802612304688, 9.375)" style=""><g><rect class="background" style="stroke: none"></rect></g><text y="-10.1" style=""><tspan class="text-outer-tspan" x="0" y="-0.1em" dy="1.1em"></tspan></text></g><g class="label attribute-comment" transform="translate(110.05404663085938, 9.375)" style=""><g><rect class="background" style="stroke: none"></rect></g><text y="-10.1" style=""><tspan class="text-outer-tspan" x="0" y="-0.1em" dy="1.1em"></tspan></text></g><g class="label attribute-type" transform="translate(-85.05404663085938, 47.125)" style=""><g><rect class="background" style="stroke: none"></rect></g><text y="-10.1" style=""><tspan class="text-outer-tspan" x="0" y="-0.1em" dy="1.1em"><tspan font-style="normal" class="text-inner-tspan" font-weight="normal">int</tspan></tspan></text></g><g class="label attribute-name" transform="translate(-17.741973876953125, 47.125)" style=""><g><rect class="background" style="stroke: none"></rect></g><text y="-10.1" style=""><tspan class="text-outer-tspan" x="0" y="-0.1em" dy="1.1em"><tspan font-style="normal" class="text-inner-tspan" font-weight="normal">creditos</tspan></tspan></text></g><g class="label attribute-keys" transform="translate(65.75802612304688, 47.125)" style=""><g><rect class="background" style="stroke: none"></rect></g><text y="-10.1" style=""><tspan class="text-outer-tspan" x="0" y="-0.1em" dy="1.1em"></tspan></text></g><g class="label attribute-comment" transform="translate(110.05404663085938, 47.125)" style=""><g><rect class="background" style="stroke: none"></rect></g><text y="-10.1" style=""><tspan class="text-outer-tspan" x="0" y="-0.1em" dy="1.1em"></tspan></text></g><g class="divider"><path d="M-97.55404663085938 -37.75 C-34.06833117306501 -37.75, 29.41738428472935 -37.75, 97.55404663085938 -37.75 M-97.55404663085938 -37.75 C-29.357254135675035 -37.75, 38.839538359509305 -37.75, 97.55404663085938 -37.75" stroke="#9370DB" stroke-width="1.3" fill="none" stroke-dasharray="0 0"></path></g><g class="divider"><path d="M-30.241973876953125 -37.75 C-30.241973876953125 1.667342145763321, -30.241973876953125 41.08468429152664, -30.241973876953125 75.5 M-30.241973876953125 -37.75 C-30.241973876953125 -2.296155061131664, -30.241973876953125 33.15768987773667, -30.241973876953125 75.5" stroke="#9370DB" stroke-width="1.3" fill="none" stroke-dasharray="0 0"></path></g><g class="divider"><path d="M53.258026123046875 -37.75 C53.258026123046875 0.17704341216796848, 53.258026123046875 38.10408682433594, 53.258026123046875 75.5 M53.258026123046875 -37.75 C53.258026123046875 -2.0951548241186657, 53.258026123046875 33.55969035176267, 53.258026123046875 75.5" stroke="#9370DB" stroke-width="1.3" fill="none" stroke-dasharray="0 0"></path></g><g class="divider"><path d="M-97.55404663085938 -37.75 C-56.334208347563674 -37.75, -15.114370064267973 -37.75, 97.55404663085938 -37.75 M-97.55404663085938 -37.75 C-22.791497392656723 -37.75, 51.97105184554593 -37.75, 97.55404663085938 -37.75" stroke="#9370DB" stroke-width="1.3" fill="none" stroke-dasharray="0 0"></path></g></g><g class="node default" id="entity-PROFESOR-2" transform="translate(438.5215148925781, 83.5)"><g style=""><path d="M-120.09310913085938 -75.5 L120.09310913085938 -75.5 L120.09310913085938 75.5 L-120.09310913085938 75.5" stroke="none" stroke-width="0" fill="#ECECFF"></path><path d="M-120.09310913085938 -75.5 C-70.09406553567104 -75.5, -20.09502194048271 -75.5, 120.09310913085938 -75.5 M-120.09310913085938 -75.5 C-68.80458413352025 -75.5, -17.516059136181113 -75.5, 120.09310913085938 -75.5 M120.09310913085938 -75.5 C120.09310913085938 -35.65857068850375, 120.09310913085938 4.182858622992498, 120.09310913085938 75.5 M120.09310913085938 -75.5 C120.09310913085938 -40.32701041865586, 120.09310913085938 -5.15402083731172, 120.09310913085938 75.5 M120.09310913085938 75.5 C28.143563336353367 75.5, -63.80598245815264 75.5, -120.09310913085938 75.5 M120.09310913085938 75.5 C31.13152126893688 75.5, -57.83006659298562 75.5, -120.09310913085938 75.5 M-120.09310913085938 75.5 C-120.09310913085938 31.52563717026537, -120.09310913085938 -12.448725659469261, -120.09310913085938 -75.5 M-120.09310913085938 75.5 C-120.09310913085938 34.202510560524914, -120.09310913085938 -7.094978878950172, -120.09310913085938 -75.5" stroke="#9370DB" stroke-width="1.3" fill="none" stroke-dasharray="0 0"></path></g><g style="" class="row-rect-odd"><path d="M-120.09310913085938 -37.75 L120.09310913085938 -37.75 L120.09310913085938 0 L-120.09310913085938 0" stroke="none" stroke-width="0" fill="hsl(240, 100%, 100%)"></path><path d="M-120.09310913085938 -37.75 C-26.175989630568807 -37.75, 67.74112986972176 -37.75, 120.09310913085938 -37.75 M-120.09310913085938 -37.75 C-48.261496623806664 -37.75, 23.570115883246046 -37.75, 120.09310913085938 -37.75 M120.09310913085938 -37.75 C120.09310913085938 -24.338624673470846, 120.09310913085938 -10.927249346941696, 120.09310913085938 0 M120.09310913085938 -37.75 C120.09310913085938 -23.200477020532826, 120.09310913085938 -8.650954041065653, 120.09310913085938 0 M120.09310913085938 0 C28.150989035986527 0, -63.79113105888632 0, -120.09310913085938 0 M120.09310913085938 0 C26.26157143408996 0, -67.56996626267946 0, -120.09310913085938 0 M-120.09310913085938 0 C-120.09310913085938 -7.651989153167214, -120.09310913085938 -15.303978306334429, -120.09310913085938 -37.75 M-120.09310913085938 0 C-120.09310913085938 -12.12595016989507, -120.09310913085938 -24.25190033979014, -120.09310913085938 -37.75" stroke="#9370DB" stroke-width="1.3" fill="none" stroke-dasharray="0 0"></path></g><g style="" class="row-rect-even"><path d="M-120.09310913085938 0 L120.09310913085938 0 L120.09310913085938 37.75 L-120.09310913085938 37.75" stroke="none" stroke-width="0" fill="hsl(240, 100%, 97.2745098039%)"></path><path d="M-120.09310913085938 0 C-41.7964304002561 0, 36.500248330347176 0, 120.09310913085938 0 M-120.09310913085938 0 C-54.14212614838269 0, 11.808856834094001 0, 120.09310913085938 0 M120.09310913085938 0 C120.09310913085938 13.823365947530128, 120.09310913085938 27.646731895060256, 120.09310913085938 37.75 M120.09310913085938 0 C120.09310913085938 12.622735408790199, 120.09310913085938 25.245470817580397, 120.09310913085938 37.75 M120.09310913085938 37.75 C56.335008122205494 37.75, -7.423092886448387 37.75, -120.09310913085938 37.75 M120.09310913085938 37.75 C25.765172677990762 37.75, -68.56276377487785 37.75, -120.09310913085938 37.75 M-120.09310913085938 37.75 C-120.09310913085938 22.655597684678952, -120.09310913085938 7.5611953693579, -120.09310913085938 0 M-120.09310913085938 37.75 C-120.09310913085938 28.519522468786597, -120.09310913085938 19.2890449375732, -120.09310913085938 0" stroke="#9370DB" stroke-width="1.3" fill="none" stroke-dasharray="0 0"></path></g><g style="" class="row-rect-odd"><path d="M-120.09310913085938 37.75 L120.09310913085938 37.75 L120.09310913085938 75.5 L-120.09310913085938 75.5" stroke="none" stroke-width="0" fill="hsl(240, 100%, 100%)"></path><path d="M-120.09310913085938 37.75 C-67.6187317633667 37.75, -15.144354395874032 37.75, 120.09310913085938 37.75 M-120.09310913085938 37.75 C-41.40661313719974 37.75, 37.27988285645989 37.75, 120.09310913085938 37.75 M120.09310913085938 37.75 C120.09310913085938 45.709494024763586, 120.09310913085938 53.66898804952718, 120.09310913085938 75.5 M120.09310913085938 37.75 C120.09310913085938 52.00722115890888, 120.09310913085938 66.26444231781775, 120.09310913085938 75.5 M120.09310913085938 75.5 C35.000052942476174 75.5, -50.09300324590703 75.5, -120.09310913085938 75.5 M120.09310913085938 75.5 C31.85564260908123 75.5, -56.381823912696916 75.5, -120.09310913085938 75.5 M-120.09310913085938 75.5 C-120.09310913085938 60.70578683347999, -120.09310913085938 45.91157366695998, -120.09310913085938 37.75 M-120.09310913085938 75.5 C-120.09310913085938 67.33513040167627, -120.09310913085938 59.170260803352534, -120.09310913085938 37.75" stroke="#9370DB" stroke-width="1.3" fill="none" stroke-dasharray="0 0"></path></g><g class="label name" transform="translate(-37.97606658935547, -66.125)" style=""><g><rect class="background" style="stroke: none"></rect></g><text y="-10.1" style=""><tspan class="text-outer-tspan" x="0" y="-0.1em" dy="1.1em"><tspan font-style="normal" class="text-inner-tspan" font-weight="normal">PROFESOR</tspan></tspan></text></g><g class="label attribute-type" transform="translate(-107.59310913085938, -28.375)" style=""><g><rect class="background" style="stroke: none"></rect></g><text y="-10.1" style=""><tspan class="text-outer-tspan" x="0" y="-0.1em" dy="1.1em"><tspan font-style="normal" class="text-inner-tspan" font-weight="normal">int</tspan></tspan></text></g><g class="label attribute-name" transform="translate(-40.281036376953125, -28.375)" style=""><g><rect class="background" style="stroke: none"></rect></g><text y="-10.1" style=""><tspan class="text-outer-tspan" x="0" y="-0.1em" dy="1.1em"><tspan font-style="normal" class="text-inner-tspan" font-weight="normal">id</tspan></tspan></text></g><g class="label attribute-keys" transform="translate(88.29708862304688, -28.375)" style=""><g><rect class="background" style="stroke: none"></rect></g><text y="-10.1" style=""><tspan class="text-outer-tspan" x="0" y="-0.1em" dy="1.1em"><tspan font-style="normal" class="text-inner-tspan" font-weight="normal">PK</tspan></tspan></text></g><g class="label attribute-comment" transform="translate(132.59310913085938, -28.375)" style=""><g><rect class="background" style="stroke: none"></rect></g><text y="-10.1" style=""><tspan class="text-outer-tspan" x="0" y="-0.1em" dy="1.1em"></tspan></text></g><g class="label attribute-type" transform="translate(-107.59310913085938, 9.375)" style=""><g><rect class="background" style="stroke: none"></rect></g><text y="-10.1" style=""><tspan class="text-outer-tspan" x="0" y="-0.1em" dy="1.1em"><tspan font-style="normal" class="text-inner-tspan" font-weight="normal">string</tspan></tspan></text></g><g class="label attribute-name" transform="translate(-40.281036376953125, 9.375)" style=""><g><rect class="background" style="stroke: none"></rect></g><text y="-10.1" style=""><tspan class="text-outer-tspan" x="0" y="-0.1em" dy="1.1em"><tspan font-style="normal" class="text-inner-tspan" font-weight="normal">nombre</tspan></tspan></text></g><g class="label attribute-keys" transform="translate(88.29708862304688, 9.375)" style=""><g><rect class="background" style="stroke: none"></rect></g><text y="-10.1" style=""><tspan class="text-outer-tspan" x="0" y="-0.1em" dy="1.1em"></tspan></text></g><g class="label attribute-comment" transform="translate(132.59310913085938, 9.375)" style=""><g><rect class="background" style="stroke: none"></rect></g><text y="-10.1" style=""><tspan class="text-outer-tspan" x="0" y="-0.1em" dy="1.1em"></tspan></text></g><g class="label attribute-type" transform="translate(-107.59310913085938, 47.125)" style=""><g><rect class="background" style="stroke: none"></rect></g><text y="-10.1" style=""><tspan class="text-outer-tspan" x="0" y="-0.1em" dy="1.1em"><tspan font-style="normal" class="text-inner-tspan" font-weight="normal">string</tspan></tspan></text></g><g class="label attribute-name" transform="translate(-40.281036376953125, 47.125)" style=""><g><rect class="background" style="stroke: none"></rect></g><text y="-10.1" style=""><tspan class="text-outer-tspan" x="0" y="-0.1em" dy="1.1em"><tspan font-style="normal" class="text-inner-tspan" font-weight="normal">departamento</tspan></tspan></text></g><g class="label attribute-keys" transform="translate(88.29708862304688, 47.125)" style=""><g><rect class="background" style="stroke: none"></rect></g><text y="-10.1" style=""><tspan class="text-outer-tspan" x="0" y="-0.1em" dy="1.1em"></tspan></text></g><g class="label attribute-comment" transform="translate(132.59310913085938, 47.125)" style=""><g><rect class="background" style="stroke: none"></rect></g><text y="-10.1" style=""><tspan class="text-outer-tspan" x="0" y="-0.1em" dy="1.1em"></tspan></text></g><g class="divider"><path d="M-120.09310913085938 -37.75 C-57.956205210323475 -37.75, 4.180698710212425 -37.75, 120.09310913085938 -37.75 M-120.09310913085938 -37.75 C-56.453210173201846 -37.75, 7.186688784455683 -37.75, 120.09310913085938 -37.75" stroke="#9370DB" stroke-width="1.3" fill="none" stroke-dasharray="0 0"></path></g><g class="divider"><path d="M-52.781036376953125 -37.75 C-52.781036376953125 -12.043860729223756, -52.781036376953125 13.662278541552489, -52.781036376953125 75.5 M-52.781036376953125 -37.75 C-52.781036376953125 -11.386518357531486, -52.781036376953125 14.976963284937028, -52.781036376953125 75.5" stroke="#9370DB" stroke-width="1.3" fill="none" stroke-dasharray="0 0"></path></g><g class="divider"><path d="M75.79708862304688 -37.75 C75.79708862304688 -7.791828926716253, 75.79708862304688 22.166342146567494, 75.79708862304688 75.5 M75.79708862304688 -37.75 C75.79708862304688 -8.581696653561664, 75.79708862304688 20.58660669287667, 75.79708862304688 75.5" stroke="#9370DB" stroke-width="1.3" fill="none" stroke-dasharray="0 0"></path></g><g class="divider"><path d="M-120.09310913085938 -37.75 C-50.18623336547218 -37.75, 19.72064239991502 -37.75, 120.09310913085938 -37.75 M-120.09310913085938 -37.75 C-49.17163453802533 -37.75, 21.749840054808715 -37.75, 120.09310913085938 -37.75" stroke="#9370DB" stroke-width="1.3" fill="none" stroke-dasharray="0 0"></path></g></g><g class="node default" id="entity-MATRICULA-3" transform="translate(271.50262451171875, 591.5)"><g style=""><path d="M-115.08529663085938 -75.5 L115.08529663085938 -75.5 L115.08529663085938 75.5 L-115.08529663085938 75.5" stroke="none" stroke-width="0" fill="#ECECFF"></path><path d="M-115.08529663085938 -75.5 C-50.2630578439571 -75.5, 14.559180942945176 -75.5, 115.08529663085938 -75.5 M-115.08529663085938 -75.5 C-60.21027380104438 -75.5, -5.335250971229385 -75.5, 115.08529663085938 -75.5 M115.08529663085938 -75.5 C115.08529663085938 -32.957429795158006, 115.08529663085938 9.585140409683987, 115.08529663085938 75.5 M115.08529663085938 -75.5 C115.08529663085938 -42.054882031826914, 115.08529663085938 -8.609764063653827, 115.08529663085938 75.5 M115.08529663085938 75.5 C66.6203023874485 75.5, 18.155308144037633 75.5, -115.08529663085938 75.5 M115.08529663085938 75.5 C65.8333359264629 75.5, 16.581375222066427 75.5, -115.08529663085938 75.5 M-115.08529663085938 75.5 C-115.08529663085938 27.074818927751643, -115.08529663085938 -21.350362144496714, -115.08529663085938 -75.5 M-115.08529663085938 75.5 C-115.08529663085938 44.296486592608446, -115.08529663085938 13.092973185216891, -115.08529663085938 -75.5" stroke="#9370DB" stroke-width="1.3" fill="none" stroke-dasharray="0 0"></path></g><g style="" class="row-rect-odd"><path d="M-115.08529663085938 -37.75 L115.08529663085938 -37.75 L115.08529663085938 0 L-115.08529663085938 0" stroke="none" stroke-width="0" fill="hsl(240, 100%, 100%)"></path><path d="M-115.08529663085938 -37.75 C-27.078731033091955 -37.75, 60.927834564675464 -37.75, 115.08529663085938 -37.75 M-115.08529663085938 -37.75 C-43.53028170926319 -37.75, 28.02473321233299 -37.75, 115.08529663085938 -37.75 M115.08529663085938 -37.75 C115.08529663085938 -28.136987792142683, 115.08529663085938 -18.523975584285367, 115.08529663085938 0 M115.08529663085938 -37.75 C115.08529663085938 -26.315059020501995, 115.08529663085938 -14.880118041003989, 115.08529663085938 0 M115.08529663085938 0 C61.67609856544096 0, 8.266900500022544 0, -115.08529663085938 0 M115.08529663085938 0 C52.47257380071022 0, -10.14014902943893 0, -115.08529663085938 0 M-115.08529663085938 0 C-115.08529663085938 -12.249561888217013, -115.08529663085938 -24.499123776434026, -115.08529663085938 -37.75 M-115.08529663085938 0 C-115.08529663085938 -9.971493695957932, -115.08529663085938 -19.942987391915864, -115.08529663085938 -37.75" stroke="#9370DB" stroke-width="1.3" fill="none" stroke-dasharray="0 0"></path></g><g style="" class="row-rect-even"><path d="M-115.08529663085938 0 L115.08529663085938 0 L115.08529663085938 37.75 L-115.08529663085938 37.75" stroke="none" stroke-width="0" fill="hsl(240, 100%, 97.2745098039%)"></path><path d="M-115.08529663085938 0 C-60.33206356711905 0, -5.578830503378725 0, 115.08529663085938 0 M-115.08529663085938 0 C-41.02535939531201 0, 33.03457784023536 0, 115.08529663085938 0 M115.08529663085938 0 C115.08529663085938 12.582156890633748, 115.08529663085938 25.164313781267495, 115.08529663085938 37.75 M115.08529663085938 0 C115.08529663085938 14.550982851286719, 115.08529663085938 29.101965702573438, 115.08529663085938 37.75 M115.08529663085938 37.75 C33.91276946034036 37.75, -47.25975771017866 37.75, -115.08529663085938 37.75 M115.08529663085938 37.75 C32.02936808643862 37.75, -51.02656045798213 37.75, -115.08529663085938 37.75 M-115.08529663085938 37.75 C-115.08529663085938 28.306752715019343, -115.08529663085938 18.863505430038682, -115.08529663085938 0 M-115.08529663085938 37.75 C-115.08529663085938 24.107381603709097, -115.08529663085938 10.464763207418194, -115.08529663085938 0" stroke="#9370DB" stroke-width="1.3" fill="none" stroke-dasharray="0 0"></path></g><g style="" class="row-rect-odd"><path d="M-115.08529663085938 37.75 L115.08529663085938 37.75 L115.08529663085938 75.5 L-115.08529663085938 75.5" stroke="none" stroke-width="0" fill="hsl(240, 100%, 100%)"></path><path d="M-115.08529663085938 37.75 C-53.72622674809309 37.75, 7.632843134673195 37.75, 115.08529663085938 37.75 M-115.08529663085938 37.75 C-27.344545682119588 37.75, 60.3962052666202 37.75, 115.08529663085938 37.75 M115.08529663085938 37.75 C115.08529663085938 45.63521803919822, 115.08529663085938 53.52043607839645, 115.08529663085938 75.5 M115.08529663085938 37.75 C115.08529663085938 49.29433432854725, 115.08529663085938 60.8386686570945, 115.08529663085938 75.5 M115.08529663085938 75.5 C63.74388020165902 75.5, 12.40246377245866 75.5, -115.08529663085938 75.5 M115.08529663085938 75.5 C33.46925668207027 75.5, -48.14678326671884 75.5, -115.08529663085938 75.5 M-115.08529663085938 75.5 C-115.08529663085938 66.95205712641817, -115.08529663085938 58.40411425283633, -115.08529663085938 37.75 M-115.08529663085938 75.5 C-115.08529663085938 62.85929645763825, -115.08529663085938 50.218592915276496, -115.08529663085938 37.75" stroke="#9370DB" stroke-width="1.3" fill="none" stroke-dasharray="0 0"></path></g><g class="label name" transform="translate(-40.42407989501953, -66.125)" style=""><g><rect class="background" style="stroke: none"></rect></g><text y="-10.1" style=""><tspan class="text-outer-tspan" x="0" y="-0.1em" dy="1.1em"><tspan font-style="normal" class="text-inner-tspan" font-weight="normal">MATRICULA</tspan></tspan></text></g><g class="label attribute-type" transform="translate(-102.58529663085938, -28.375)" style=""><g><rect class="background" style="stroke: none"></rect></g><text y="-10.1" style=""><tspan class="text-outer-tspan" x="0" y="-0.1em" dy="1.1em"><tspan font-style="normal" class="text-inner-tspan" font-weight="normal">int</tspan></tspan></text></g><g class="label attribute-name" transform="translate(-35.273223876953125, -28.375)" style=""><g><rect class="background" style="stroke: none"></rect></g><text y="-10.1" style=""><tspan class="text-outer-tspan" x="0" y="-0.1em" dy="1.1em"><tspan font-style="normal" class="text-inner-tspan" font-weight="normal">id</tspan></tspan></text></g><g class="label attribute-keys" transform="translate(83.28927612304688, -28.375)" style=""><g><rect class="background" style="stroke: none"></rect></g><text y="-10.1" style=""><tspan class="text-outer-tspan" x="0" y="-0.1em" dy="1.1em"><tspan font-style="normal" class="text-inner-tspan" font-weight="normal">PK</tspan></tspan></text></g><g class="label attribute-comment" transform="translate(127.58529663085938, -28.375)" style=""><g><rect class="background" style="stroke: none"></rect></g><text y="-10.1" style=""><tspan class="text-outer-tspan" x="0" y="-0.1em" dy="1.1em"></tspan></text></g><g class="label attribute-type" transform="translate(-102.58529663085938, 9.375)" style=""><g><rect class="background" style="stroke: none"></rect></g><text y="-10.1" style=""><tspan class="text-outer-tspan" x="0" y="-0.1em" dy="1.1em"><tspan font-style="normal" class="text-inner-tspan" font-weight="normal">float</tspan></tspan></text></g><g class="label attribute-name" transform="translate(-35.273223876953125, 9.375)" style=""><g><rect class="background" style="stroke: none"></rect></g><text y="-10.1" style=""><tspan class="text-outer-tspan" x="0" y="-0.1em" dy="1.1em"><tspan font-style="normal" class="text-inner-tspan" font-weight="normal">nota</tspan></tspan></text></g><g class="label attribute-keys" transform="translate(83.28927612304688, 9.375)" style=""><g><rect class="background" style="stroke: none"></rect></g><text y="-10.1" style=""><tspan class="text-outer-tspan" x="0" y="-0.1em" dy="1.1em"></tspan></text></g><g class="label attribute-comment" transform="translate(127.58529663085938, 9.375)" style=""><g><rect class="background" style="stroke: none"></rect></g><text y="-10.1" style=""><tspan class="text-outer-tspan" x="0" y="-0.1em" dy="1.1em"></tspan></text></g><g class="label attribute-type" transform="translate(-102.58529663085938, 47.125)" style=""><g><rect class="background" style="stroke: none"></rect></g><text y="-10.1" style=""><tspan class="text-outer-tspan" x="0" y="-0.1em" dy="1.1em"><tspan font-style="normal" class="text-inner-tspan" font-weight="normal">string</tspan></tspan></text></g><g class="label attribute-name" transform="translate(-35.273223876953125, 47.125)" style=""><g><rect class="background" style="stroke: none"></rect></g><text y="-10.1" style=""><tspan class="text-outer-tspan" x="0" y="-0.1em" dy="1.1em"><tspan font-style="normal" class="text-inner-tspan" font-weight="normal">convocatoria</tspan></tspan></text></g><g class="label attribute-keys" transform="translate(83.28927612304688, 47.125)" style=""><g><rect class="background" style="stroke: none"></rect></g><text y="-10.1" style=""><tspan class="text-outer-tspan" x="0" y="-0.1em" dy="1.1em"></tspan></text></g><g class="label attribute-comment" transform="translate(127.58529663085938, 47.125)" style=""><g><rect class="background" style="stroke: none"></rect></g><text y="-10.1" style=""><tspan class="text-outer-tspan" x="0" y="-0.1em" dy="1.1em"></tspan></text></g><g class="divider"><path d="M-115.08529663085938 -37.75 C-68.33871541791504 -37.75, -21.59213420497072 -37.75, 115.08529663085938 -37.75 M-115.08529663085938 -37.75 C-42.13034953562831 -37.75, 30.82459755960275 -37.75, 115.08529663085938 -37.75" stroke="#9370DB" stroke-width="1.3" fill="none" stroke-dasharray="0 0"></path></g><g class="divider"><path d="M-47.773223876953125 -37.75 C-47.773223876953125 -5.067701516400746, -47.773223876953125 27.61459696719851, -47.773223876953125 75.5 M-47.773223876953125 -37.75 C-47.773223876953125 -0.5369076945178364, -47.773223876953125 36.67618461096433, -47.773223876953125 75.5" stroke="#9370DB" stroke-width="1.3" fill="none" stroke-dasharray="0 0"></path></g><g class="divider"><path d="M70.78927612304688 -37.75 C70.78927612304688 1.872683577022805, 70.78927612304688 41.49536715404561, 70.78927612304688 75.5 M70.78927612304688 -37.75 C70.78927612304688 -10.299854976715228, 70.78927612304688 17.150290046569545, 70.78927612304688 75.5" stroke="#9370DB" stroke-width="1.3" fill="none" stroke-dasharray="0 0"></path></g><g class="divider"><path d="M-115.08529663085938 -37.75 C-68.95268682800456 -37.75, -22.820077025149743 -37.75, 115.08529663085938 -37.75 M-115.08529663085938 -37.75 C-38.222012153598854 -37.75, 38.64127232366167 -37.75, 115.08529663085938 -37.75" stroke="#9370DB" stroke-width="1.3" fill="none" stroke-dasharray="0 0"></path></g></g></g></g></g></svg>