<svg id="container" width="196.59375" xmlns="http://www.w3.org/2000/svg" class="classDiagram" height="413" viewBox="0 0 196.59375 413" role="graphics-document document" aria-roledescription="class"><style>#container{font-family:"trebuchet ms",verdana,arial,sans-serif;font-size:16px;fill:#333;}@keyframes edge-animation-frame{from{stroke-dashoffset:0;}}@keyframes dash{to{stroke-dashoffset:0;}}#container .edge-animation-slow{stroke-dasharray:9,5!important;stroke-dashoffset:900;animation:dash 50s linear infinite;stroke-linecap:round;}#container .edge-animation-fast{stroke-dasharray:9,5!important;stroke-dashoffset:900;animation:dash 20s linear infinite;stroke-linecap:round;}#container .error-icon{fill:#552222;}#container .error-text{fill:#552222;stroke:#552222;}#container .edge-thickness-normal{stroke-width:1px;}#container .edge-thickness-thick{stroke-width:3.5px;}#container .edge-pattern-solid{stroke-dasharray:0;}#container .edge-thickness-invisible{stroke-width:0;fill:none;}#container .edge-pattern-dashed{stroke-dasharray:3;}#container .edge-pattern-dotted{stroke-dasharray:2;}#container .marker{fill:#333333;stroke:#333333;}#container .marker.cross{stroke:#333333;}#container svg{font-family:"trebuchet ms",verdana,arial,sans-serif;font-size:16px;}#container p{margin:0;}#container g.classGroup text{fill:#9370DB;stroke:none;font-family:"trebuchet ms",verdana,arial,sans-serif;font-size:10px;}#container g.classGroup text .title{font-weight:bolder;}#container .nodeLabel,#container .edgeLabel{color:#131300;}#container .edgeLabel .label rect{fill:#ECECFF;}#container .label text{fill:#131300;}#container .labelBkg{background:#ECECFF;}#container .edgeLabel .label span{background:#ECECFF;}#container .classTitle{font-weight:bolder;}#container .node rect,#container .node circle,#container .node ellipse,#container .node polygon,#container .node path{fill:#ECECFF;stroke:#9370DB;stroke-width:1px;}#container .divider{stroke:#9370DB;stroke-width:1;}#container g.clickable{cursor:pointer;}#container g.classGroup rect{fill:#ECECFF;stroke:#9370DB;}#container g.classGroup line{stroke:#9370DB;stroke-width:1;}#container .classLabel .box{stroke:none;stroke-width:0;fill:#ECECFF;opacity:0.5;}#container .classLabel .label{fill:#9370DB;font-size:10px;}#container .relation{stroke:#333333;stroke-width:1;fill:none;}#container .dashed-line{stroke-dasharray:3;}#container .dotted-line{stroke-dasharray:1 2;}#container #compositionStart,#container .composition{fill:#333333!important;stroke:#333333!important;stroke-width:1;}#container #compositionEnd,#container .composition{fill:#333333!important;stroke:#333333!important;stroke-width:1;}#container #dependencyStart,#container .dependency{fill:#333333!important;stroke:#333333!important;stroke-width:1;}#container #dependencyStart,#container .dependency{fill:#333333!important;stroke:#333333!important;stroke-width:1;}#container #extensionStart,#container .extension{fill:transparent!important;stroke:#333333!important;stroke-width:1;}#container #extensionEnd,#container .extension{fill:transparent!important;stroke:#333333!important;stroke-width:1;}#container #aggregationStart,#container .aggregation{fill:transparent!important;stroke:#333333!important;stroke-width:1;}#container #aggregationEnd,#container .aggregation{fill:transparent!important;stroke:#333333!important;stroke-width:1;}#container #lollipopStart,#container .lollipop{fill:#ECECFF!important;stroke:#333333!important;stroke-width:1;}#container #lollipopEnd,#container .lollipop{fill:#ECECFF!important;stroke:#333333!important;stroke-width:1;}#container .edgeTerminals{font-size:11px;line-height:initial;}#container .classTitleText{text-anchor:middle;font-size:18px;fill:#333;}#container .label-icon{display:inline-block;height:1em;overflow:visible;vertical-align:-0.125em;}#container .node .label-icon path{fill:currentColor;stroke:revert;stroke-width:revert;}#container :root{--mermaid-font-family:"trebuchet ms",verdana,arial,sans-serif;}</style><g><defs><marker id="container_class-aggregationStart" class="marker aggregation class" refX="18" refY="7" markerWidth="190" markerHeight="240" orient="auto"><path d="M 18,7 L9,13 L1,7 L9,1 Z"></path></marker></defs><defs><marker id="container_class-aggregationEnd" class="marker aggregation class" refX="1" refY="7" markerWidth="20" markerHeight="28" orient="auto"><path d="M 18,7 L9,13 L1,7 L9,1 Z"></path></marker></defs><defs><marker id="container_class-extensionStart" class="marker extension class" refX="18" refY="7" markerWidth="190" markerHeight="240" orient="auto"><path d="M 1,7 L18,13 V 1 Z"></path></marker></defs><defs><marker id="container_class-extensionEnd" class="marker extension class" refX="1" refY="7" markerWidth="20" markerHeight="28" orient="auto"><path d="M 1,1 V 13 L18,7 Z"></path></marker></defs><defs><marker id="container_class-compositionStart" class="marker composition class" refX="18" refY="7" markerWidth="190" markerHeight="240" orient="auto"><path d="M 18,7 L9,13 L1,7 L9,1 Z"></path></marker></defs><defs><marker id="container_class-compositionEnd" class="marker composition class" refX="1" refY="7" markerWidth="20" markerHeight="28" orient="auto"><path d="M 18,7 L9,13 L1,7 L9,1 Z"></path></marker></defs><defs><marker id="container_class-dependencyStart" class="marker dependency class" refX="6" refY="7" markerWidth="190" markerHeight="240" orient="auto"><path d="M 5,7 L9,13 L1,7 L9,1 Z"></path></marker></defs><defs><marker id="container_class-dependencyEnd" class="marker dependency class" refX="13" refY="7" markerWidth="20" markerHeight="28" orient="auto"><path d="M 18,7 L9,13 L14,7 L9,1 Z"></path></marker></defs><defs><marker id="container_class-lollipopStart" class="marker lollipop class" refX="13" refY="7" markerWidth="190" markerHeight="240" orient="auto"><circle stroke="black" fill="transparent" cx="7" cy="7" r="6"></circle></marker></defs><defs><marker id="container_class-lollipopEnd" class="marker lollipop class" refX="1" refY="7" markerWidth="190" markerHeight="240" orient="auto"><circle stroke="black" fill="transparent" cx="7" cy="7" r="6"></circle></marker></defs><g class="root"><g class="clusters"></g><g class="edgePaths"><path d="M98.297,181L98.297,187.083C98.297,193.167,98.297,205.333,98.297,216.5C98.297,227.667,98.297,237.833,98.297,242.917L98.297,248" id="id_Experimento_Muestra_1" class="edge-thickness-normal edge-pattern-solid relation" style=";;;" data-edge="true" data-et="edge" data-id="id_Experimento_Muestra_1" data-points="W3sieCI6OTguMjk2ODc1LCJ5IjoxODF9LHsieCI6OTguMjk2ODc1LCJ5IjoyMTcuNX0seyJ4Ijo5OC4yOTY4NzUsInkiOjI1NH1d" marker-end="url(#container_class-dependencyEnd)"></path></g><g class="edgeLabels"><g class="edgeLabel" transform="translate(98.296875, 217.5)"><g class="label" data-id="id_Experimento_Muestra_1" transform="translate(-14.6640625, -11.5)"><g><rect class="background" style="" x="-2" y="-1" width="29.328125" height="23"></rect><text y="-10.1" style=""><tspan class="text-outer-tspan" x="0" y="-0.1em" dy="1.1em"><tspan font-style="normal" class="text-inner-tspan" font-weight="normal">usa</tspan></tspan></text></g></g></g></g><g class="nodes"><g class="node default" id="classId-Experimento-0" transform="translate(98.296875, 94.5)"><g class="basic label-container"><path d="M-90.296875 -86.5 L90.296875 -86.5 L90.296875 86.5 L-90.296875 86.5" stroke="none" stroke-width="0" fill="#ECECFF" style=""></path><path d="M-90.296875 -86.5 C-38.12289945960825 -86.5, 14.051076080783503 -86.5, 90.296875 -86.5 M-90.296875 -86.5 C-27.41639438246481 -86.5, 35.46408623507038 -86.5, 90.296875 -86.5 M90.296875 -86.5 C90.296875 -20.71496584934799, 90.296875 45.07006830130402, 90.296875 86.5 M90.296875 -86.5 C90.296875 -38.04667218902484, 90.296875 10.406655621950321, 90.296875 86.5 M90.296875 86.5 C40.308749752998686 86.5, -9.679375494002628 86.5, -90.296875 86.5 M90.296875 86.5 C26.367259051780835 86.5, -37.56235689643833 86.5, -90.296875 86.5 M-90.296875 86.5 C-90.296875 35.34149032754146, -90.296875 -15.817019344917085, -90.296875 -86.5 M-90.296875 86.5 C-90.296875 47.07492555652213, -90.296875 7.649851113044264, -90.296875 -86.5" stroke="#9370DB" stroke-width="1.3" fill="none" stroke-dasharray="0 0" style=""></path></g><g class="annotation-group text" transform="translate(0, -66.5)"></g><g class="label-group text" transform="translate(-46.375, -66.5)"><g class="label" style="font-weight: bolder" transform="translate(0,-9.5)"><g><rect class="background" style="stroke: none"></rect><text y="-10.1" style=""><tspan class="text-outer-tspan" x="0" y="-0.1em" dy="1.1em" font-weight=""><tspan font-style="normal" class="text-inner-tspan" font-weight="">Experimento</tspan></tspan></text></g></g></g><g class="members-group text" transform="translate(-78.296875, -23.5)"><g class="label" style="" transform="translate(0,-9.5)"><g><rect class="background" style="stroke: none"></rect><text y="-10.1" style=""><tspan class="text-outer-tspan" x="0" y="-0.1em" dy="1.1em"><tspan font-style="normal" class="text-inner-tspan" font-weight="normal">+string</tspan><tspan font-style="normal" class="text-inner-tspan" font-weight="normal"> nombre</tspan></tspan></text></g></g><g class="label" style="" transform="translate(0,12.5)"><g><rect class="background" style="stroke: none"></rect><text y="-10.1" style=""><tspan class="text-outer-tspan" x="0" y="-0.1em" dy="1.1em"><tspan font-style="normal" class="text-inner-tspan" font-weight="normal">+date</tspan><tspan font-style="normal" class="text-inner-tspan" font-weight="normal"> fecha</tspan></tspan></text></g></g></g><g class="methods-group text" transform="translate(-78.296875, 41.5)"><g class="label" style="" transform="translate(0,-9.5)"><g><rect class="background" style="stroke: none"></rect><text y="-10.1" style=""><tspan class="text-outer-tspan" x="0" y="-0.1em" dy="1.1em"><tspan font-style="normal" class="text-inner-tspan" font-weight="normal">+ejecutar()</tspan></tspan></text></g></g><g class="label" style="" transform="translate(0,12.5)"><g><rect class="background" style="stroke: none"></rect><text y="-10.1" style=""><tspan class="text-outer-tspan" x="0" y="-0.1em" dy="1.1em"><tspan font-style="normal" class="text-inner-tspan" font-weight="normal">+analizar()</tspan></tspan></text></g></g></g><g class="divider" style=""><path d="M-90.296875 -43.5 C-29.499643288983478 -43.5, 31.297588422033044 -43.5, 90.296875 -43.5 M-90.296875 -43.5 C-26.776404596738928 -43.5, 36.744065806522144 -43.5, 90.296875 -43.5" stroke="#9370DB" stroke-width="1.3" fill="none" stroke-dasharray="0 0" style=""></path></g><g class="divider" style=""><path d="M-90.296875 21.5 C-45.316512278049785 21.5, -0.33614955609957065 21.5, 90.296875 21.5 M-90.296875 21.5 C-32.09411200072795 21.5, 26.108650998544107 21.5, 90.296875 21.5" stroke="#9370DB" stroke-width="1.3" fill="none" stroke-dasharray="0 0" style=""></path></g></g><g class="node default" id="classId-Muestra-1" transform="translate(98.296875, 329.5)"><g class="basic label-container"><path d="M-68.49408721923828 -75.5 L68.49408721923828 -75.5 L68.49408721923828 75.5 L-68.49408721923828 75.5" stroke="none" stroke-width="0" fill="#ECECFF" style=""></path><path d="M-68.49408721923828 -75.5 C-33.19117171328148 -75.5, 2.111743792675327 -75.5, 68.49408721923828 -75.5 M-68.49408721923828 -75.5 C-39.83603867258849 -75.5, -11.177990125938699 -75.5, 68.49408721923828 -75.5 M68.49408721923828 -75.5 C68.49408721923828 -45.28561965938343, 68.49408721923828 -15.07123931876685, 68.49408721923828 75.5 M68.49408721923828 -75.5 C68.49408721923828 -29.24622547025367, 68.49408721923828 17.00754905949266, 68.49408721923828 75.5 M68.49408721923828 75.5 C17.889714066017945 75.5, -32.71465908720239 75.5, -68.49408721923828 75.5 M68.49408721923828 75.5 C39.39656660612263 75.5, 10.299045993006978 75.5, -68.49408721923828 75.5 M-68.49408721923828 75.5 C-68.49408721923828 34.37217172437818, -68.49408721923828 -6.755656551243646, -68.49408721923828 -75.5 M-68.49408721923828 75.5 C-68.49408721923828 34.499701588289874, -68.49408721923828 -6.500596823420253, -68.49408721923828 -75.5" stroke="#9370DB" stroke-width="1.3" fill="none" stroke-dasharray="0 0" style=""></path></g><g class="annotation-group text" transform="translate(0, -55.5)"></g><g class="label-group text" transform="translate(-29.660049438476562, -55.5)"><g class="label" style="font-weight: bolder" transform="translate(0,-9.5)"><g><rect class="background" style="stroke: none"></rect><text y="-10.1" style=""><tspan class="text-outer-tspan" x="0" y="-0.1em" dy="1.1em" font-weight=""><tspan font-style="normal" class="text-inner-tspan" font-weight="">Muestra</tspan></tspan></text></g></g></g><g class="members-group text" transform="translate(-56.49408721923828, -12.5)"><g class="label" style="" transform="translate(0,-9.5)"><g><rect class="background" style="stroke: none"></rect><text y="-10.1" style=""><tspan class="text-outer-tspan" x="0" y="-0.1em" dy="1.1em"><tspan font-style="normal" class="text-inner-tspan" font-weight="normal">+string</tspan><tspan font-style="normal" class="text-inner-tspan" font-weight="normal"> tipo</tspan></tspan></text></g></g><g class="label" style="" transform="translate(0,12.5)"><g><rect class="background" style="stroke: none"></rect><text y="-10.1" style=""><tspan class="text-outer-tspan" x="0" y="-0.1em" dy="1.1em"><tspan font-style="normal" class="text-inner-tspan" font-weight="normal">+float</tspan><tspan font-style="normal" class="text-inner-tspan" font-weight="normal"> masa</tspan></tspan></text></g></g></g><g class="methods-group text" transform="translate(-56.49408721923828, 52.5)"><g class="label" style="" transform="translate(0,-9.5)"><g><rect class="background" style="stroke: none"></rect><text y="-10.1" style=""><tspan class="text-outer-tspan" x="0" y="-0.1em" dy="1.1em"><tspan font-style="normal" class="text-inner-tspan" font-weight="normal">+preparar()</tspan></tspan></text></g></g></g><g class="divider" style=""><path d="M-68.49408721923828 -32.5 C-38.657007204501966 -32.5, -8.81992718976565 -32.5, 68.49408721923828 -32.5 M-68.49408721923828 -32.5 C-26.09714504053226 -32.5, 16.29979713817376 -32.5, 68.49408721923828 -32.5" stroke="#9370DB" stroke-width="1.3" fill="none" stroke-dasharray="0 0" style=""></path></g><g class="divider" style=""><path d="M-68.49408721923828 32.5 C-25.118531833669593 32.5, 18.257023551899096 32.5, 68.49408721923828 32.5 M-68.49408721923828 32.5 C-39.603630256695865 32.5, -10.713173294153442 32.5, 68.49408721923828 32.5" stroke="#9370DB" stroke-width="1.3" fill="none" stroke-dasharray="0 0" style=""></path></g></g></g></g></g></svg>